<?xml version="1.0" standalone="no"?><!DOCTYPE svg PUBLIC "-//W3C//DTD SVG 1.1//EN" "http://www.w3.org/Graphics/SVG/1.1/DTD/svg11.dtd"><svg t="1712406788507" class="icon" viewBox="0 0 1024 1024" version="1.1" xmlns="http://www.w3.org/2000/svg" p-id="8520" xmlns:xlink="http://www.w3.org/1999/xlink" width="200" height="200"><path d="M129.536 84.992L512 0l382.464 84.992a46.545455 46.545455 0 0 1 36.445091 45.428364v464.849454a279.272727 279.272727 0 0 1-124.369455 232.354909L512 1024l-294.539636-196.375273A279.272727 279.272727 0 0 1 93.090909 595.316364V130.420364a46.545455 46.545455 0 0 1 36.445091-45.428364zM186.181818 167.749818v427.52a186.181818 186.181818 0 0 0 82.897455 154.903273L512 912.151273l242.920727-161.978182A186.181818 186.181818 0 0 0 837.818182 595.316364V167.749818L512 95.418182 186.181818 167.749818z" fill="#000000" p-id="8521"></path><path d="M509.998545 698.181818a162.909091 162.909091 0 0 1-151.412363-102.539636 161.978182 161.978182 0 0 1 39.796363-178.082909C427.566545 390.190545 499.153455 340.992 488.261818 232.727273c130.327273 86.574545 195.490909 173.149091 65.163637 303.104 21.736727 0 73.634909-5.678545 111.429818-45.614546 5.864727 16.756364 8.052364 26.856727 8.052363 45.614546A162.629818 162.629818 0 0 1 509.998545 698.181818z" fill="#000000" p-id="8522"></path></svg>