<?xml version="1.0" encoding="UTF-8"?>
<svg width="18px" height="18px" viewBox="0 0 18 18" version="1.1" xmlns="http://www.w3.org/2000/svg" xmlns:xlink="http://www.w3.org/1999/xlink">
    <title>用户-fill</title>
    <g id="页面-2" stroke="none" stroke-width="1" fill="none" fill-rule="evenodd">
        <g id="街道管理-共享单车" transform="translate(-1358.000000, -45.000000)" fill-rule="nonzero">
            <g id="编组-2备份" transform="translate(1358.000000, 36.073529)">
                <g id="用户-fill" transform="translate(0.000000, 8.926471)">
                    <rect id="矩形" fill="#000000" opacity="0" x="0" y="0" width="18" height="18"></rect>
                    <path d="M11.0939063,10.8882949 L11.0999531,10.5949863 C12.4938633,9.62136914 13.1711836,7.90391602 13.1711836,5.36099414 C13.1711836,2.90879297 11.6381602,1.44532617 9.06802734,1.44532617 L8.92894922,1.44532617 C6.36183984,1.44532617 4.82581055,2.90879297 4.82581055,5.36099414 C4.82581055,7.89182227 5.50916016,9.60927539 6.91516406,10.5889395 L6.91516406,10.8852715 C4.57483008,11.1997441 2.22844922,12.1310332 2.22844922,13.5551777 C2.22844922,15.5477988 4.50529102,16.5576973 8.99848828,16.5576973 C13.4916855,16.5576973 15.7685273,15.5477988 15.7685273,13.5551777 C15.7685273,12.1340566 13.4281758,11.20275 11.0939063,10.8882949 L11.0939063,10.8882949 Z" id="路径" fill="#FFFFFF"></path>
                </g>
            </g>
        </g>
    </g>
</svg>