<?xml version="1.0" encoding="UTF-8"?>
<svg width="23px" height="18px" viewBox="0 0 23 18" version="1.1" xmlns="http://www.w3.org/2000/svg" xmlns:xlink="http://www.w3.org/1999/xlink">
    <title>gongxiangdanche</title>
    <g id="页面-5" stroke="none" stroke-width="1" fill="none" fill-rule="evenodd">
        <g id="防汛防台管理" transform="translate(-890.000000, -50.000000)" fill="#FFFFFF">
            <g id="编组" transform="translate(507.000000, 33.000000)">
                <g id="编组-14备份-4" transform="translate(383.000000, 14.381731)">
                    <g id="gongxiangdanche" transform="translate(0.000000, 2.618249)">
                        <path d="M21.4940476,12.2992525 C21.4929385,13.7783661 20.2931929,14.9772513 18.8127461,14.9790874 C17.3321409,14.9772513 16.132427,13.7783661 16.1312862,12.2992525 C16.1330291,10.8201389 17.3331233,9.62176027 18.8137285,9.62052564 C20.2939534,9.62299489 21.4929385,10.8216268 21.4940476,12.3003605 L21.4940476,12.2992525 Z M8.76631868,14.5090748 C7.97634357,15.298634 6.90497012,15.7428144 5.7874258,15.744049 C3.46151648,15.7411049 1.57674975,13.8578571 1.57440476,11.5342909 C1.57674975,9.21059815 3.46151648,7.32735029 5.7874258,7.32440618 C5.83286783,7.32440618 5.87830986,7.32760355 5.92261108,7.33083257 L6.00268919,7.33513793 L4.67980014,11.4650252 C4.5508259,11.8676716 4.77277567,12.2983978 5.17582807,12.4273687 C5.57872204,12.556213 6.00988259,12.3343602 6.13898358,11.9318405 L7.49752276,7.69067856 C9.01824624,8.36611396 9.9991159,9.87166123 10.0015876,11.5342909 C10.000225,12.6500763 9.55607197,13.7198639 8.76631868,14.5090748 Z M13.2076273,11.66934 C13.3806809,11.66934 13.5114931,11.6152697 13.6359041,11.4899077 C13.7549914,11.3799627 13.8207144,11.2240199 13.8165314,11.0620306 C13.8165314,10.8891513 13.7612975,10.7573313 13.6370133,10.6330456 C13.5266088,10.5139517 13.3699067,10.4485482 13.2076273,10.4537399 C13.0517808,10.4482949 12.9014798,10.5114824 12.7965259,10.6266192 C12.6791815,10.7405214 12.6151697,10.8985535 12.6202716,11.0620306 C12.6202716,11.2371259 12.6743648,11.372175 12.7954168,11.4964607 C12.911145,11.6184987 13.0366651,11.66934 13.2076273,11.66934 Z" id="Fill-1"></path>
                        <path d="M14.067857,10.1015424 C13.8319229,9.85275633 13.5055957,9.71475932 13.1663776,9.72040626 C12.8164696,9.72040626 12.5181564,9.84861738 12.2755883,10.1015424 C12.0320455,10.3555903 11.9107143,10.6611345 11.9107143,11.0214796 C11.9107143,11.3806697 12.0320455,11.6840962 12.2755883,11.9414169 C12.5181564,12.1954648 12.8143945,12.32143 13.1663776,12.32143 C13.5162857,12.32143 13.8178059,12.1954648 14.067857,11.9402939 C14.3168076,11.6862459 14.4434524,11.3806697 14.4434524,11.0203566 C14.4434524,10.6622895 14.3168076,10.3555903 14.067857,10.1004194 L14.067857,10.1015424 Z M13.5946369,11.4551386 C13.4848446,11.5755531 13.3296198,11.6418726 13.16861,11.6369957 C13.0137311,11.6438618 12.8641343,11.5795637 12.7607245,11.4617802 C12.6448955,11.3462105 12.5815417,11.1866525 12.5858491,11.0214796 C12.5806613,10.85605 12.6436693,10.6959787 12.7596241,10.5801844 C12.8640085,10.463235 13.0136053,10.3990653 13.16861,10.4049689 C13.3403098,10.4049689 13.4722053,10.4596095 13.5935365,10.5866976 C13.7120694,10.698385 13.777404,10.8569163 13.7727508,11.0214796 C13.777404,11.1855295 13.7124467,11.3435796 13.5946369,11.4551386 Z" id="Fill-2"></path>
                        <path d="M5.75060248,5.75039344 C5.98544391,5.75039344 6.21594111,5.76773806 6.44323565,5.79586361 L8.05598678,0.752226521 C8.19966305,0.303454372 8.61734213,-0.00075816323 9.08851533,1.41920724e-06 L11.5010464,1.41920724e-06 C11.9246869,1.41920724e-06 12.2679118,0.34334382 12.2679118,0.766844197 C12.2679118,1.19031286 11.9246869,1.53365384 11.5010464,1.53365384 L9.41750261,1.53365384 L8.90891206,3.12466574 L16.7689334,7.87934214 L18.4627977,5.17456484 L17.6337815,5.17456484 C17.4302692,5.17481851 17.2351599,5.09431031 17.0911031,4.9505117 C16.9471732,4.80683993 16.8662819,4.61173677 16.8662819,4.40823082 C16.8662819,4.10528663 17.1726285,3.61491277 17.3165585,3.47098733 C17.4604884,3.32731555 17.655566,3.24677565 17.8588246,3.24690248 L21.4663009,3.78807356 C21.4447384,3.78483928 21.8484335,3.87799922 22.0085671,4.03701797 C22.1882972,4.21674244 22.2337688,4.32933977 22.2337688,4.55440758 C22.2337688,4.78058519 22.127605,4.90504154 22.0085671,5.02407571 C21.9101088,5.12268953 21.6698133,5.17567464 21.4674108,5.17567464 L20.2724656,5.17567464 L18.4616879,8.06550347 C18.5678517,8.05782998 18.6749985,8.05028333 18.7832551,8.05028333 C21.1106776,8.0527566 22.9970193,9.93856357 23,12.2659131 C22.9976535,14.59377 21.1110581,16.4803063 18.7832551,16.4826527 C16.4553253,16.4803063 14.5686982,14.59377 14.5663517,12.2659131 C14.5673347,11.0865109 15.0636853,9.96171087 15.9344631,9.1661415 L8.4283211,4.62587881 L7.93038498,6.18220148 C10.0876219,7.06791846 11.4972096,9.16775864 11.5000634,11.4997059 C11.4970827,14.6742782 8.92416438,17.2470208 5.74946094,17.2500014 C2.57516972,17.2463866 0.00298070401,14.6737709 0,11.4997059 C0.00298070401,8.32500684 2.5757722,5.75226425 5.75060248,5.74928364 L5.75060248,5.75039344 Z M18.7832551,14.9501115 C20.2651724,14.9488749 21.4661741,13.7479108 21.4674108,12.2659131 C21.4656668,10.7843911 20.264665,9.58406116 18.7832551,9.58282452 C17.3016867,9.58466362 16.1011923,10.7855009 16.1000507,12.2670229 C16.1017948,13.7485449 17.3026697,14.9488749 18.7842381,14.9501115 L18.7832551,14.9501115 Z M5.75060248,15.7163187 C8.07802496,15.7133698 9.96389102,13.8270555 9.96636437,11.4997059 C9.96363734,9.83449587 8.98212956,8.32662398 7.46067042,7.64983512 L6.10124743,11.8979028 C5.97206245,12.301078 5.5406214,12.523292 5.13746533,12.3942379 C4.73415071,12.265057 4.51205655,11.8336295 4.64111469,11.4303275 L5.96486437,7.29371557 C5.89339089,7.290513 5.82194912,7.28296635 5.74946094,7.28296635 C3.42203846,7.28591525 1.53604556,9.17222956 1.53369905,11.4997059 C1.53604556,13.8275628 3.42267265,15.7139723 5.75060248,15.7163187 Z" id="Fill-3"></path>
                    </g>
                </g>
            </g>
        </g>
    </g>
</svg>