<?xml version="1.0" encoding="UTF-8"?>
<svg width="38px" height="38px" viewBox="0 0 38 38" version="1.1" xmlns="http://www.w3.org/2000/svg" xmlns:xlink="http://www.w3.org/1999/xlink">
    <title>编组 32备份</title>
    <defs>
        <polygon id="path-1" points="0 0 20 0 20 18.2608696 0 18.2608696"></polygon>
    </defs>
    <g id="页面-5" stroke="none" stroke-width="1" fill="none" fill-rule="evenodd">
        <g id="工具栏" transform="translate(-1364.000000, -994.000000)">
            <g id="编组-33" transform="translate(1364.000000, 575.000000)">
                <g id="编组-32备份" transform="translate(0.000000, 419.000000)">
                    <rect id="矩形备份-12" stroke="#4281CF" fill-opacity="0.377458479" fill="#1F436F" x="0.5" y="0.5" width="37" height="37" rx="3"></rect>
                    <g id="yiqingchugaojing" transform="translate(9.000000, 10.000000)">
                        <g id="Clip-2"></g>
                        <path d="M0.000358458082,18.2608696 L19.9999829,18.2608696 L19.9999829,16.8560818 L0.000358458082,16.8560818 L0.000358458082,18.2608696 Z M19.4653646,6.52247988 L13.3806878,0.526726835 C13.046206,0.193006057 12.5906323,0.00353913025 12.1142442,0 C11.7079164,0 11.3121912,0.144665378 11.0152926,0.43745296 L0.442958027,10.866776 C-0.182088657,11.4827767 -0.140348194,12.5311 0.534614055,13.1962919 L2.82350365,15.4514312 L12.8679999,15.4514312 L19.5573555,8.85210551 C20.181872,8.23599506 20.1404664,7.1877815 19.4653646,6.52247988 Z M12.2744539,14.0467805 L3.41543139,14.0467805 L1.5453973,12.203168 C1.41144278,12.0701626 1.40948968,11.9013817 1.45404818,11.8574307 L7.27475008,6.11718088 L13.8043423,12.5374101 L12.2744539,14.0467805 Z" id="Fill-1" fill="#FFFFFF"></path>
                    </g>
                </g>
            </g>
        </g>
    </g>
</svg>
