<?xml version="1.0" encoding="UTF-8"?>
<svg width="88px" height="121px" viewBox="0 0 88 121" version="1.1" xmlns="http://www.w3.org/2000/svg" xmlns:xlink="http://www.w3.org/1999/xlink">
    <title>编组 5</title>
    <defs>
        <linearGradient x1="50%" y1="0%" x2="50%" y2="99.7077142%" id="linearGradient-1">
            <stop stop-color="#338CF7" offset="0%"></stop>
            <stop stop-color="#1D70D3" offset="100%"></stop>
        </linearGradient>
        <path d="M4.54747351e-13,24.8693274 C3.26991069,24.2224177 6.86216039,25.6684613 10.7767491,29.2074582 C16.6486322,34.5158497 25.3156387,32.5013371 29.6996364,26.9709837 C34.0836341,21.4406303 44.223547,19.6898675 50.837567,29.2074582 C57.1783234,35.4815061 69.2765705,32.8501421 74.36668,24.8693274 C74.730451,24.6036861 75.0115468,24.3473317 75.2854519,24.1097641 L75.449536,23.9695539 C76.3264905,23.2346005 77.2844054,22.7114789 80.7967601,22.7114789 C80.8475239,22.8782744 80.9127723,26.5839144 80.9925052,33.828399 L81,33.8297569 L81,87 C81,89.209139 79.209139,91 77,91 L4,91 C1.790861,91 2.705415e-16,89.209139 0,87 L4.54747351e-13,24.8693274 Z" id="path-2"></path>
    </defs>
    <g id="页面-2" stroke="none" stroke-width="1" fill="none" fill-rule="evenodd">
        <g id="街道管理-垃圾分类" transform="translate(-59.000000, -270.000000)">
            <g id="每日垃圾总量" transform="translate(29.000000, 122.940846)">
                <g id="编组-5" transform="translate(30.000000, 148.000000)">
                    <g id="编组-4" transform="translate(3.550725, 28.464951)">
                        <path d="M0,0 L81,0 L81,87 C81,89.209139 79.209139,91 77,91 L4,91 C1.790861,91 2.705415e-16,89.209139 0,87 L0,0 L0,0 Z" id="矩形" fill="#4082E4" opacity="0.504441034"></path>
                        <path d="M0,33.8297569 L81,33.8297569 L81,87 C81,89.209139 79.209139,91 77,91 L4,91 C1.790861,91 2.705415e-16,89.209139 0,87 L0,33.8297569 L0,33.8297569 Z M5.45037225,33.5159536 C9.63968706,27.5434216 13.5883588,23.5316818 17.2963873,21.4807343 C22.8584302,18.4043132 30.9356297,16.7370461 38.4360301,23.9303288 C45.9364305,31.1236116 53.0572566,28.077014 59.4170147,21.4807343 C65.7767729,14.8844547 79.5433486,17.7008629 80.8360192,27.498292 C80.7731168,31.2371808 80.7731168,33.243068 80.8360192,33.5159536 L5.45037225,33.5159536 Z" id="形状结合" fill="#338CF7" opacity="0.30594308"></path>
                        <mask id="mask-3" fill="white">
                            <use xlink:href="#path-2"></use>
                        </mask>
                        <use id="形状结合" fill="url(#linearGradient-1)" xlink:href="#path-2"></use>
                    </g>
                    <path d="M57,0.0591536187 C58.1045695,0.0591536187 59,0.954584119 59,2.05915362 L59,8.059 L78,8.05915362 C83.5228475,8.05915362 88,12.5363061 88,18.0591536 L88,22.0591536 L0,22.0591536 L0,18.0591536 C-6.76353751e-16,12.5363061 4.4771525,8.05915362 10,8.05915362 L31,8.059 L31,2.05915362 C31,0.954584119 31.8954305,0.0591536187 33,0.0591536187 L57,0.0591536187 Z" id="形状结合" fill="#4082E4" opacity="0.504441034"></path>
                    <rect id="矩形" stroke="#FFFFFF" x="28.5" y="66.5" width="31" height="31" rx="3"></rect>
                    <g id="厨余垃圾" transform="translate(33.000000, 71.059154)" fill-rule="nonzero">
                        <rect id="矩形" fill="#000000" opacity="0" x="0" y="0" width="22" height="22"></rect>
                        <path d="M7.18090452,7.93959732 C7.18090452,9.4966443 7.04690117,9.87248322 6.7520938,10.7583893 L5.97487437,10.409396 C6.26968174,9.68456376 6.40368509,9.04026846 6.40368509,8.04697987 L6.40368509,6.08724832 L10.6917923,6.08724832 L10.6917923,6.83892617 L7.18090452,6.83892617 L7.18090452,7.93959732 L7.18090452,7.93959732 Z M10.798995,8.12751678 L10.5309883,8.12751678 L10.5309883,10.0872483 C10.5309883,10.5704698 10.3701843,10.6778523 9.83417085,10.7315436 L9.48576214,10.7583893 L9.21775544,9.9261745 L9.53936348,9.89932886 C9.7001675,9.87248322 9.80737018,9.81879195 9.80737018,9.65771812 L9.80737018,9.44295302 L9.35175879,9.65771812 C9.29815745,9.46979866 9.13735343,9.09395973 9.03015075,8.77181208 L9.03015075,9.17449664 L8.68174204,9.17449664 L9.05695142,9.33557047 C9.00335008,9.46979866 8.8961474,9.65771812 8.81574539,9.84563758 C8.92294807,9.81879195 9.03015075,9.81879195 9.13735343,9.81879195 L9.11055276,10.5436242 C8.68174204,10.5704698 7.5561139,10.6241611 7.18090452,10.6778523 L7.12730318,9.9261745 C7.26130653,9.9261745 7.39530988,9.89932886 7.5561139,9.89932886 C7.47571189,9.7114094 7.36850921,9.46979866 7.31490787,9.36241611 L7.77051926,9.14765101 L7.36850921,9.14765101 L7.36850921,7.80536913 L9.03015075,7.80536913 L9.03015075,8.44966443 L9.45896147,8.31543624 C9.53936348,8.47651007 9.7001675,8.85234899 9.80737018,9.12080537 L9.80737018,8.10067114 L9.21775544,8.10067114 L9.21775544,7.29530201 L9.80737018,7.29530201 L9.80737018,6.91946309 L10.5309883,6.91946309 L10.5309883,7.29530201 L10.798995,7.29530201 L10.798995,8.12751678 L10.798995,8.12751678 Z M7.34170854,7.67114094 L7.34170854,6.97315436 L9.05695142,6.97315436 L9.05695142,7.67114094 L7.34170854,7.67114094 Z M8.0921273,9.87248322 C8.17252931,9.68456376 8.30653266,9.36241611 8.41373534,9.17449664 L7.90452261,9.17449664 C7.98492462,9.30872483 8.0921273,9.55033557 8.17252931,9.68456376 L7.77051926,9.89932886 L8.0921273,9.87248322 L8.0921273,9.87248322 Z M7.95812395,8.61073826 L8.41373534,8.61073826 L8.41373534,8.34228188 L7.95812395,8.34228188 L7.95812395,8.61073826 Z M13.961474,9.06711409 L13.961474,10.0067114 C13.961474,10.5973154 13.80067,10.7315436 13.2646566,10.7583893 L12.8358459,10.7852349 L12.5678392,9.95302013 L12.8626466,9.9261745 C13.0770519,9.89932886 13.1574539,9.84563758 13.1574539,9.63087248 L13.1574539,9.06711409 L12.2730318,9.06711409 L12.8358459,9.57718121 C12.5410385,9.89932886 12.0050251,10.3288591 11.6298157,10.6241611 L11.120603,9.97986577 C11.4958124,9.73825503 11.9514238,9.36241611 12.2462312,9.04026846 L11.3350084,9.04026846 L11.3350084,8.23489933 L13.1306533,8.23489933 L13.1306533,7.91275168 L12.1122278,7.91275168 L12.1122278,7.61744966 C11.9514238,7.69798658 11.7638191,7.77852349 11.5762144,7.8590604 L11.1742044,7.08053691 C12.0586265,6.75838926 12.5678392,6.46308725 13.0770519,5.95302013 L13.9882747,5.95302013 C14.4438861,6.43624161 15.0067002,6.75838926 15.8643216,7.08053691 L15.4891122,7.88590604 C15.3015075,7.80536913 15.1139028,7.72483221 14.9262982,7.61744966 L14.9262982,7.91275168 L13.961474,7.91275168 L13.961474,8.23489933 L15.7303183,8.23489933 L15.7303183,9.04026846 L13.961474,9.04026846 L13.961474,9.06711409 Z M12.8894472,7.18791946 L14.2026801,7.18791946 C13.9078727,7 13.6934673,6.83892617 13.5326633,6.67785235 C13.3450586,6.83892617 13.1306533,7.02684564 12.8894472,7.18791946 Z M14.5778894,9.12080537 C14.9798995,9.33557047 15.5159129,9.65771812 15.8643216,9.89932886 L15.4087102,10.6510067 C15.0067002,10.3288591 14.4706868,9.95302013 14.0954774,9.73825503 L14.5778894,9.12080537 L14.5778894,9.12080537 Z M10.7721943,15.1879195 L10.7721943,15.966443 L7.71691792,15.966443 L7.71691792,15.295302 C7.26130653,15.4295302 6.53768844,15.6174497 6.24288107,15.6979866 L6.08207705,14.8120805 C6.18927973,14.7852349 6.37688442,14.7315436 6.64489112,14.6778523 L6.64489112,13.3624161 L6.2160804,13.3624161 L6.2160804,12.5033557 L6.64489112,12.5033557 L6.64489112,11.2684564 L7.42211055,11.295302 L7.42211055,12.5302013 L7.8241206,12.5302013 L7.8241206,13.3892617 L7.42211055,13.3892617 L7.42211055,14.4899329 C7.60971524,14.4362416 7.79731993,14.409396 7.90452261,14.3557047 L7.95812395,15.1879195 L9.4321608,15.1879195 L9.08375209,15.0805369 C9.13735343,14.9731544 9.19095477,14.8120805 9.24455611,14.6510067 L8.57453936,14.8926174 C8.41373534,14.3020134 8.19932998,13.5503356 8.03852596,13.1208054 L8.78894472,12.9060403 C8.94974874,13.3624161 9.13735343,13.9798658 9.29815745,14.5167785 C9.48576214,13.9530201 9.67336683,13.2818792 9.75376884,12.8791946 L10.5845896,13.1208054 C10.3969849,13.7114094 10.1289782,14.5973154 9.88777219,15.1879195 L10.7721943,15.1879195 Z M10.6649916,12.6912752 L7.87772194,12.6912752 L7.87772194,11.885906 L8.86934673,11.885906 C8.81574539,11.6711409 8.76214405,11.3758389 8.73534338,11.2416107 L9.64656616,11.2416107 C9.7001675,11.4295302 9.75376884,11.7248322 9.78056951,11.885906 L10.6917923,11.885906 L10.6917923,12.6912752 L10.6649916,12.6912752 Z M15.4355109,16.0201342 C15.0871022,15.7785235 14.7922948,15.5637584 14.5510888,15.3221477 C14.2830821,15.5637584 13.9882747,15.8053691 13.5862647,16.0201342 L13.1574539,15.5369128 C13.0770519,15.6979866 12.9698492,15.8590604 12.8626466,16.0469799 L12.1658291,15.6442953 L12.3266332,15.4026846 C11.9514238,15.5100671 11.4690117,15.6174497 11.2278057,15.6711409 L11.0938023,14.7852349 C11.1742044,14.7583893 11.361809,14.7315436 11.6030151,14.6778523 L11.6030151,13.3892617 L11.2546064,13.3892617 L11.2546064,12.5033557 L11.6298157,12.5033557 L11.6298157,11.2416107 L12.4070352,11.2684564 L12.4070352,12.5033557 L12.7286432,12.5033557 L12.7286432,13.3892617 L12.4070352,13.3892617 L12.4070352,14.4899329 L12.6750419,14.4362416 C12.7018425,14.5436242 12.7018425,14.6241611 12.7018425,14.7852349 C12.9162479,14.2483221 13.0234506,13.7114094 13.0502513,12.9060403 L13.0502513,12.2348993 L12.7286432,12.2348993 L12.7286432,11.4563758 L15.3819095,11.4563758 L15.3819095,12.2885906 L15.0871022,12.7986577 L15.6499162,12.7986577 L15.6499162,13.5771812 C15.4891122,14.0604027 15.3015075,14.4362416 15.0603015,14.7852349 C15.3015075,14.9731544 15.5695142,15.1610738 15.8911223,15.3221477 L15.4355109,16.0201342 L15.4355109,16.0201342 Z M14.0686767,14.7583893 C13.9078727,14.5704698 13.80067,14.3288591 13.6934673,14.0872483 C13.639866,14.5167785 13.5058626,14.8926174 13.3450586,15.295302 C13.6130653,15.1342282 13.8274707,14.9463087 14.0686767,14.7583893 Z M13.7738693,12.2080537 L13.7738693,12.3959732 C13.9882747,13.1744966 14.2026801,13.738255 14.5510888,14.1677852 C14.6850921,13.9530201 14.8190955,13.738255 14.8994975,13.4697987 L14.2294807,13.4697987 L14.2294807,12.8255034 L14.5778894,12.1812081 L13.7738693,12.1812081 L13.7738693,12.2080537 Z M16.0251256,19 L5.9480737,19 C4.31323283,19 3,17.6577181 3,16.0469799 L3,5.95302013 C3,4.31543624 4.3400335,3 5.9480737,3 L15.6767169,3 L15.6767169,4.66442953 L17.3383585,4.66442953 L17.3383585,6.32885906 L19,6.32885906 L19,16.0738255 C18.9731993,17.6845638 17.6599665,19 16.0251256,19 Z M5.9480737,4.12751678 C4.92964824,4.12751678 4.12562814,4.95973154 4.12562814,5.95302013 L4.12562814,16.0469799 C4.12562814,17.0671141 4.95644891,17.8724832 5.9480737,17.8724832 L16.0251256,17.8724832 C17.0435511,17.8724832 17.8475712,17.0402685 17.8475712,16.0469799 L17.8475712,7.4295302 L16.1859296,7.4295302 L16.1859296,5.76510067 L14.5242881,5.76510067 L14.5242881,4.10067114 L5.9480737,4.10067114 L5.9480737,4.12751678 Z" id="形状" fill="#FFFFFF"></path>
                    </g>
                </g>
            </g>
        </g>
    </g>
</svg>