<?xml version="1.0" encoding="UTF-8"?>
<svg width="23px" height="23px" viewBox="0 0 23 23" version="1.1" xmlns="http://www.w3.org/2000/svg" xmlns:xlink="http://www.w3.org/1999/xlink">
    <title>编组 4</title>
    <g id="页面-5" stroke="none" stroke-width="1" fill="none" fill-rule="evenodd">
        <g id="视点管理" transform="translate(-1297.000000, -641.000000)">
            <g id="弹窗" transform="translate(960.000000, 575.000000)">
                <g id="编组-33" transform="translate(22.000000, 65.000000)">
                    <g id="编组-4" transform="translate(315.000000, 1.000000)">
                        <circle id="椭圆形备份-2" stroke="#FFFFFF" cx="11.5" cy="11.5" r="11"></circle>
                        <g id="删除" transform="translate(2.421053, 2.421053)" fill-rule="nonzero">
                            <rect id="矩形" fill="#000000" opacity="0" x="0" y="0" width="17.5526316" height="17.5526316"></rect>
                            <path d="M4.92857606,5.1825679 L13.2293187,5.1825679 L13.2293187,14.5263158 L4.92857606,14.5263158 L4.92857606,5.1825679 Z M6.31202776,6.62006368 L6.31202776,13.08882 L11.845867,13.08882 L11.845867,6.62006368 L6.31202776,6.62006368 Z M7.00376171,8.05755947 L8.38721341,8.05755947 L8.38721341,11.6513242 L7.00376171,11.6513242 L7.00376171,8.05755947 Z M9.77068132,8.05755947 L11.154133,8.05755947 L11.154133,11.6513242 L9.77068132,11.6513242 L9.77068132,8.05755947 Z M4.23684211,5.1825679 L13.9210526,5.1825679 L13.9210526,6.62006368 L4.23684211,6.62006368 L4.23684211,5.1825679 L4.23684211,5.1825679 Z M7.00376171,3.02631579 L11.154133,3.02631579 L11.154133,4.46381158 L7.00376171,4.46381158 L7.00376171,3.02631579 L7.00376171,3.02631579 Z" id="形状" fill="#FFFFFF"></path>
                        </g>
                    </g>
                </g>
            </g>
        </g>
    </g>
</svg>