<?xml version="1.0" encoding="UTF-8"?>
<svg width="19px" height="18px" viewBox="0 0 19 18" version="1.1" xmlns="http://www.w3.org/2000/svg" xmlns:xlink="http://www.w3.org/1999/xlink">
    <!-- Generator: Sketch 64 (93537) - https://sketch.com -->
    <title>调度备份</title>
    <desc>Created with Sketch.</desc>
    <g id="飞控" stroke="none" stroke-width="1" fill="none" fill-rule="evenodd">
        <g id="团队" transform="translate(-418.000000, -404.000000)">
            <g id="调度备份" transform="translate(415.465915, 400.941360)">
                <rect id="矩形" x="-1.42108547e-14" y="0" width="24" height="24"></rect>
                <g id="16px/面性/通用/icon-version-management" transform="translate(2.810809, 3.500000)" fill="#FFFFFF">
                    <path d="M16.0811705,15.1622031 C16.3349306,15.1622031 16.5405852,15.3678578 16.5405852,15.6216179 L16.5405852,16.5405852 C16.5405852,16.7943454 16.3349306,17 16.0811705,17 L2.2973081,17 C2.04354796,17 1.83783821,16.7943454 1.83783821,16.5405852 L1.83783821,15.6216179 C1.83783821,15.3678578 2.04354796,15.1622031 2.2973081,15.1622031 L16.0811705,15.1622031 Z M17.4595526,0 C17.9670729,0 18.3783821,0.411415355 18.3783821,0.918921862 L18.3783821,11.9459828 C18.3783821,12.4534893 17.9670729,12.864895 17.4595526,12.864895 L0.918921862,12.864895 C0.411415355,12.864895 0,12.4534893 0,11.9459828 L0,0.918921862 C0,0.411415355 0.411415355,0 0.918921862,0 L17.4595526,0 Z M5.97298452,3.945127 L4.13514631,3.945127 C3.91311652,3.945127 3.72786197,4.10262094 3.68502185,4.31199718 L3.6756902,4.40459689 L3.6756902,5.3235091 C3.6756902,5.54555267 3.83318414,5.73079344 4.0425466,5.77363356 L4.13514631,5.78297899 L5.97298452,5.78297899 C6.19502809,5.78297899 6.38026887,5.62548505 6.42310898,5.41610881 L6.43245441,5.3235091 L6.43245441,4.40459689 C6.43245441,4.15083674 6.22674467,3.945127 5.97298452,3.945127 Z M12.4054941,7.6422447 L14.2433323,7.6422447 C14.4653621,7.6422447 14.6506166,7.79973864 14.6934567,8.00911488 L14.7027884,8.10171459 L14.7027884,9.0206268 C14.7027884,9.24267037 14.5452944,9.42791114 14.335932,9.47075126 L14.2433323,9.48009669 L12.4054941,9.48009669 C12.1834505,9.48009669 11.9982097,9.32260275 11.9553696,9.11322651 L11.9460242,9.0206268 L11.9460242,8.10171459 C11.9460242,7.84795444 12.1517339,7.6422447 12.4054941,7.6422447 Z M14.2432358,3.945127 L8.72974873,3.945127 C8.50771894,3.945127 8.32246439,4.10262094 8.27962427,4.31199718 L8.27029262,4.40459689 L8.27029262,5.3235091 C8.27029262,5.54555267 8.42778656,5.73079344 8.63714902,5.77363356 L8.72974873,5.78297899 L14.2432358,5.78297899 C14.4652931,5.78297899 14.6505477,5.62548505 14.6934154,5.41610881 L14.7027884,5.3235091 L14.7027884,4.40459689 C14.7027884,4.15083674 14.4969959,3.945127 14.2432358,3.945127 Z M4.1352428,7.6422447 L9.64872986,7.6422447 C9.87075965,7.6422447 10.0560142,7.79973864 10.0988543,8.00911488 L10.108186,8.10171459 L10.108186,9.0206268 C10.108186,9.24267037 9.95069203,9.42791114 9.74132957,9.47075126 L9.64872986,9.48009669 L4.1352428,9.48009669 C3.91318544,9.48009669 3.72793089,9.32260275 3.6850632,9.11322651 L3.6756902,9.0206268 L3.6756902,8.10171459 C3.6756902,7.84795444 3.88148265,7.6422447 4.1352428,7.6422447 Z" id="形状结合"></path>
                </g>
            </g>
        </g>
    </g>
</svg>