<?xml version="1.0" encoding="UTF-8"?>
<svg width="13px" height="12px" viewBox="0 0 13 12" version="1.1" xmlns="http://www.w3.org/2000/svg" xmlns:xlink="http://www.w3.org/1999/xlink">
    <!-- Generator: Sketch 64 (93537) - https://sketch.com -->
    <title>16px/面性/通用/icon-forward-arrow</title>
    <desc>Created with Sketch.</desc>
    <g id="飞控" stroke="none" stroke-width="1" fill="none" fill-rule="evenodd">
        <g id="飞行权限" transform="translate(-583.000000, -501.000000)" stroke="#FFFFFF">
            <g id="16px/面性/通用/icon-forward-arrow" transform="translate(583.636364, 501.833366)">
                <path d="M6.40244187,2.82685267 C3.1426125,2.82685267 0.5,5.50837024 0.5,8.81620573 C0.5,9.02163392 0.522202331,9.29772334 0.566607131,9.64461199 C0.576027188,9.71810242 0.643222063,9.77006326 0.71670275,9.76067857 C0.75646775,9.75557219 0.791870562,9.73293852 0.813213313,9.69898801 L0.898347125,9.56594617 C0.980051,9.44063291 1.05146506,9.33864336 1.11258931,9.25990854 C2.07469125,8.02126695 3.64725125,7.32121019 5.7189225,7.29257307 L6.40244187,7.29167601 L6.40244187,9.69995408 C6.40244187,9.85086824 6.52599938,9.97321429 6.678425,9.97321429 C6.75161625,9.97321429 6.82181688,9.94443916 6.87357187,9.89316837 L11.378725,5.43267855 C11.540425,5.27261431 11.540425,5.01309992 11.378725,4.85303569 L6.87357187,0.392532066 C6.7657925,0.285822645 6.59105062,0.285822645 6.48327125,0.392532066 C6.43151625,0.443775255 6.40244187,0.513276504 6.40244187,0.585746353 L6.40244187,2.82685267 Z" id="形状"></path>
            </g>
        </g>
    </g>
</svg>