<?xml version="1.0" encoding="UTF-8"?>
<svg width="23px" height="23px" viewBox="0 0 23 23" version="1.1" xmlns="http://www.w3.org/2000/svg" xmlns:xlink="http://www.w3.org/1999/xlink">
    <title>编组 3</title>
    <g id="页面-5" stroke="none" stroke-width="1" fill="none" fill-rule="evenodd">
        <g id="视点管理" transform="translate(-1258.000000, -641.000000)">
            <g id="弹窗" transform="translate(960.000000, 575.000000)">
                <g id="编组-33" transform="translate(22.000000, 65.000000)">
                    <g id="编组-3" transform="translate(276.000000, 1.000000)">
                        <circle id="椭圆形备份" stroke="#FFFFFF" cx="11.5" cy="11.5" r="11"></circle>
                        <g id="编辑色块备份" transform="translate(4.842105, 4.236842)" fill-rule="nonzero">
                            <rect id="矩形" fill="#000000" opacity="0" x="0" y="0" width="12.7105263" height="12.7105263"></rect>
                            <path d="M9.52147656,5.16188609 L7.63799546,3.06135402 L2.05706619,8.21479457 L1.59143859,10.5052559 L3.90404271,10.3488665 L9.52147656,5.16188609 Z M11.3917539,3.17757358 L9.79953274,1.33795053 L9.79603762,1.33405054 C9.72351164,1.25485706 9.60081919,1.24962133 9.52186491,1.32235058 L7.93003212,2.79186504 L9.81312487,4.89239711 L11.3766084,3.44862256 C11.4541347,3.37740477 11.4608596,3.25705464 11.3917539,3.17757358 L11.3917539,3.17757358 Z M1.27105263,11.2950029 L11.3680647,11.2950029 L11.3680647,12.075 L1.27105263,12.075 L1.27105263,11.2950029 Z" id="形状" fill="#FFFFFF"></path>
                        </g>
                    </g>
                </g>
            </g>
        </g>
    </g>
</svg>
