<?xml version="1.0" encoding="UTF-8"?>
<svg width="25px" height="25px" viewBox="0 0 25 25" version="1.1" xmlns="http://www.w3.org/2000/svg" xmlns:xlink="http://www.w3.org/1999/xlink">
    <title>fangxunfangtai</title>
    <g id="页面-2" stroke="none" stroke-width="1" fill="none" fill-rule="evenodd">
        <g id="街道管理-垃圾分类" transform="translate(-756.000000, -44.000000)" fill="#FFFFFF">
            <g id="编组" transform="translate(572.547366, 33.337005)">
                <g id="fangxunfangtai" transform="translate(183.452634, 10.662995)">
                    <path d="M14.1595295,0.448050807 C14.8963394,0.00940117403 15.785318,-0.113646365 16.6177228,0.107608285 C17.4501276,0.328862935 18.1529459,0.875088446 18.560912,1.61799209 L24.8644373,12.9073234 C25.316049,13.7157754 24.5682686,14.6649899 23.6684883,14.4263172 L22.2685563,14.0547005 L20.5897721,20.269195 C20.1137891,20.1042519 19.6056036,20.0465218 19.1034941,20.1002603 C18.6968445,20.1453557 18.3016716,20.2646756 17.9398489,20.4571971 L17.1643893,20.8333333 L16.6827354,20.1239461 C16.4671406,19.7792481 16.1860267,19.477963 15.854415,19.2366183 C15.3802549,18.8909966 14.8209302,18.6741294 14.233251,18.6082841 C14.5118332,18.4749112 14.7171327,18.2294429 14.7954787,17.9361411 L15.7518328,14.3925699 C15.905183,13.8370416 15.5721198,13.2643922 15.0052676,13.1088509 L11.4484418,12.1630013 C11.1764082,12.0922737 10.8867205,12.1307714 10.6438514,12.2699504 C10.4010836,12.4091293 10.2253199,12.6373446 10.1557165,12.9039586 L9.7443074,14.42414 C9.29269574,16.1007534 10.295092,17.8235179 11.9841716,18.2727239 L13.3254032,18.6296608 C12.974281,18.6852136 12.6354119,18.7983646 12.3229057,18.9641983 L11.5486275,19.3402026 L11.0659272,18.6296608 C10.8501973,18.2853586 10.5689485,17.9846014 10.2374718,17.7436195 C9.55838342,17.2489222 8.71281408,17.0239399 7.87089032,17.1141307 C7.46424067,17.1590942 7.0690678,17.278546 6.7072789,17.4710676 L5.93300068,17.8471048 L5.45131308,17.1377176 C5.23602201,16.7931515 4.95527949,16.4919984 4.62407285,16.2504888 C4.24814049,15.9765513 3.81749085,15.7827432 3.36007328,15.681831 L5.03649465,9.47301051 L3.28176107,9.00575975 C2.38316222,8.76698814 2.2137108,7.57346 3.01225905,7.09707139 L14.1595295,0.446896205 L14.1595295,0.448050807 Z" id="Fill-1"></path>
                    <path d="M9.70466089,21.5579986 C10.0011444,22.0363398 10.4803045,22.3958152 11.0386009,22.5564923 L11.0455687,22.5657348 C11.6085777,22.7113464 12.1990874,22.6453624 12.6896585,22.3819007 L13.7236817,21.8641519 C13.8019092,21.8211896 13.8877776,21.7940715 13.9765409,21.7845581 C14.2522557,21.7549348 14.5206325,21.8858531 14.6681674,22.121926 L15.3116591,23.0996326 C15.4540439,23.3387185 15.6448327,23.5513635 15.8745334,23.7235515 C16.3394887,24.071753 16.9182845,24.2303311 17.4945894,24.1673942 C17.7783492,24.1349947 18.0484427,24.0494085 18.2896889,23.9130733 L19.3237121,23.3965095 C19.4019396,23.3534117 19.487808,23.3262936 19.5764367,23.3167803 C19.8522861,23.2866153 20.1209322,23.4178045 20.2681978,23.6542497 L20.9103767,24.6307713 C20.9724471,24.7312877 21.0586858,24.8167045 21.160846,24.8803186 C21.3688692,25.0078176 21.6226372,25.0350711 21.8526072,24.9542585 C21.9612303,24.9145801 22.0583751,24.8481899 22.1351888,24.7613173 C22.3266172,24.5829 22.4515321,24.3439494 22.4891311,24.0840763 C22.5247778,23.8202421 22.4721661,23.5519052 22.3397785,23.3213846 L21.697465,22.3460818 C21.5520171,22.1031363 21.3608579,21.8911346 21.1344224,21.722129 C20.6697364,21.3733858 20.0908059,21.2148415 19.514501,21.2783202 C19.2353528,21.3088576 18.9651583,21.3948162 18.7194015,21.5314222 L17.6842002,22.0479861 C17.6059727,22.0911177 17.5201042,22.1182019 17.431341,22.1277491 C17.1553568,22.1576094 16.8866098,22.0260478 16.7397481,21.7890609 L16.0963574,20.8137242 C15.9509432,20.5709141 15.7596157,20.3589124 15.5333485,20.1897714 C15.0686625,19.8407912 14.4898666,19.6818068 13.9132924,19.7449131 C13.6345481,19.7758568 13.3647239,19.862357 13.1193711,19.9990985 L12.0853479,20.5156285 C12.0071204,20.5588955 11.9212519,20.5860136 11.8324887,20.5953915 C11.5561006,20.6254211 11.2870843,20.4939611 11.139684,20.2568387 L10.496327,19.281502 C10.3507781,19.0385566 10.1595853,18.8265887 9.93331806,18.6574477 C9.46849739,18.3089753 8.88970158,18.1503972 8.31339665,18.2137404 C8.03424843,18.2443117 7.7640203,18.3304057 7.51826349,18.4667409 L6.48413933,18.9833047 C6.40641676,19.0262671 6.32081759,19.0533852 6.23259289,19.0630339 C5.95647413,19.0929281 5.6878617,18.9614681 5.54083175,18.7244812 L4.8974747,17.7491783 C4.75206046,17.5062328 4.56086766,17.2942311 4.33446576,17.1250901 C3.86991438,16.7760761 3.29098392,16.6171255 2.71454436,16.6801979 C2.43526149,16.7110062 2.16503336,16.7975065 1.9194112,16.9345188 L0.580893282,17.6058012 C0.11014833,17.8745444 -0.109689731,18.4376254 0.0534973645,18.9567284 C0.0775647682,19.0716332 0.12923395,19.1787513 0.204028035,19.2688063 C0.361694775,19.4564661 0.595098099,19.5630764 0.839407493,19.5588445 C0.957590226,19.5565762 1.073686,19.526445 1.17837079,19.4710239 L2.51914397,18.7903297 C2.59750609,18.7476382 2.68337454,18.7209263 2.77200318,18.7117854 C3.04771801,18.6816542 3.31633043,18.812708 3.46359601,19.0491533 L4.10580859,20.0256749 C4.24832802,20.2660812 4.43911689,20.4786247 4.66881754,20.6497292 C5.13350356,20.9987433 5.71229938,21.1576938 6.28887358,21.0946214 C6.57263332,21.0622219 6.84269315,20.9755863 7.08397308,20.8403006 L8.11799626,20.3226872 C8.19635838,20.2799619 8.28222684,20.2532501 8.37072083,20.244143 C8.64630102,20.2150275 8.91440853,20.3458443 9.06244831,20.5815108 L9.70583902,21.5579986 L9.70466089,21.5579986 Z" id="Fill-3"></path>
                </g>
            </g>
        </g>
    </g>
</svg>