<?xml version="1.0" encoding="UTF-8"?>
<svg width="38px" height="39px" viewBox="0 0 38 39" version="1.1" xmlns="http://www.w3.org/2000/svg" xmlns:xlink="http://www.w3.org/1999/xlink">
    <title>编组 27</title>
    <g id="页面-5" stroke="none" stroke-width="1" fill="none" fill-rule="evenodd">
        <g id="工具栏" transform="translate(-1364.000000, -714.000000)">
            <g id="编组-33" transform="translate(1364.000000, 575.000000)">
                <g id="编组-27" transform="translate(0.000000, 139.500000)">
                    <rect id="矩形备份-7" stroke="#4281CF" fill-opacity="0.377458479" fill="#1F436F" x="0.5" y="0.5" width="37" height="37" rx="3"></rect>
                    <path d="M7.5,18.0040203 L7.5,25.9959797 C7.5,26.5516213 7.87035362,27 8.32922726,27 L29.6707727,27 C30.1296464,27 30.5,26.5516213 30.5,25.9959797 L30.5,18.0040203 C30.5,17.4484206 30.1296464,17 29.6707727,17 L8.32922726,17 C7.87318682,17 7.5,17.4484206 7.5,18.0040203 Z M29,25.5 L9,25.5 L9,19.5 L9.77257881,19.5 L9.77257881,20.8032348 C9.77257881,20.9192037 9.84926157,21.0140515 9.94302045,21.0140515 L10.9653508,21.0140515 C11.0590741,21.0140515 11.1357569,20.9192037 11.1357569,20.8032348 L11.1357569,19.5 L12.2037063,19.5 L12.2037063,20.8032348 C12.2037063,20.9192037 12.2804246,21.0140515 12.374006,21.0140515 L13.3964783,21.0140515 C13.4902371,21.0140515 13.5669199,20.9192037 13.5669199,20.8032348 L13.5669199,19.5 L14.6348694,19.5 L14.6348694,22.032743 C14.6348694,22.1487119 14.7114101,22.2435597 14.805169,22.2435597 L15.8276413,22.2435597 C15.9213647,22.2435597 15.9980474,22.1487119 15.9980474,22.032743 L15.9980474,19.5 L16.9267609,19.5 L16.9267609,20.8032348 C16.9267609,20.9192037 17.0034791,21.0140515 17.0972025,21.0140515 L18.1195328,21.0140515 C18.2132917,21.0140515 18.2899744,20.9192037 18.2899744,20.8032348 L18.2899744,19.5 L19.3579239,19.5 L19.3579239,20.8032348 C19.3579239,20.9192037 19.4346066,21.0140515 19.5283655,21.0140515 L20.5506958,21.0140515 C20.6444192,21.0140515 20.721102,20.9192037 20.721102,20.8032348 L20.721102,19.5 L21.7890514,19.5 L21.7890514,22.032743 C21.7890514,22.1487119 21.8657697,22.2435597 21.959351,22.2435597 L22.9818233,22.2435597 C23.0755822,22.2435597 23.152265,22.1487119 23.152265,22.032743 L23.152265,19.5 L24.291217,19.5 L24.291217,20.8032348 C24.291217,20.9192037 24.3677577,21.0140515 24.4615166,21.0140515 L25.4839889,21.0140515 C25.5777123,21.0140515 25.6543951,20.9192037 25.6543951,20.8032348 L25.6543951,19.5 L26.7222025,19.5 L26.7222025,20.8032348 C26.7222025,20.9192037 26.7989208,21.0140515 26.8926441,21.0140515 L27.9151164,21.0140515 C28.0088753,21.0140515 28.0855581,20.9192037 28.0855581,20.8032348 L28.0855581,19.5 L28.9971954,19.5 L28.9971954,25.5 L29,25.5 Z M9.79405422,14.2508523 L29.2059795,14.2508523 L29.2059795,14.8120273 C29.2059795,14.9153202 29.2787643,15 29.3677573,15 L30.3382222,15 C30.4272151,15 30.5,14.9153202 30.5,14.8120273 L30.5,12.1881294 C30.5,12.0846406 30.4272151,12 30.3382222,12 L29.3677573,12 C29.2787643,12 29.2059795,12.0846406 29.2059795,12.1881294 L29.2059795,12.7492653 L9.79405422,12.7492653 L9.79405422,12.1881294 C9.79405422,12.0846406 9.72126935,12 9.63227638,12 L8.66177784,12 C8.57281856,12 8.5,12.0846406 8.5,12.1881294 L8.5,14.8120273 C8.5,14.9153202 8.57281856,15 8.66177784,15 L9.63227638,15 C9.72126935,15 9.79405422,14.9153202 9.79405422,14.8120273 L9.79405422,14.2508523 Z" id="moxingyulan3Ddanchuang_liangce_moren" fill="#FFFFFF" transform="translate(19.000000, 19.500000) rotate(-270.000000) translate(-19.000000, -19.500000) "></path>
                </g>
            </g>
        </g>
    </g>
</svg>
