<?xml version="1.0" standalone="no"?><!DOCTYPE svg PUBLIC "-//W3C//DTD SVG 1.1//EN" "http://www.w3.org/Graphics/SVG/1.1/DTD/svg11.dtd"><svg t="1713006200504" class="icon" viewBox="0 0 1024 1024" version="1.1" xmlns="http://www.w3.org/2000/svg" p-id="882" xmlns:xlink="http://www.w3.org/1999/xlink" width="200" height="200"><path d="M429.271579 955.122526c25.061053 15.036632 45.082947 5.012211 45.082947-25.061052V579.341474a93.130105 93.130105 0 0 0-45.082947-75.156211L138.725053 323.799579c-25.061053-10.024421-45.082947 0-45.082948 25.061053v350.72a93.130105 93.130105 0 0 0 45.082948 75.15621zM183.808 213.504c-25.061053 15.036632-25.061053 35.031579 0 50.095158l285.642105 180.385684a101.699368 101.699368 0 0 0 85.180632 5.012211l285.642105-145.300211c25.061053-15.036632 25.061053-35.031579 0-50.095158L539.567158 73.377684a85.935158 85.935158 0 0 0-85.180632 0z m370.795789 716.584421c0 30.073263 20.048842 40.097684 45.082948 25.061053l285.642105-145.300211a93.130105 93.130105 0 0 0 45.16379-75.183158V383.919158c0-30.073263-20.048842-40.097684-45.082948-25.061053l-285.642105 145.300211a93.130105 93.130105 0 0 0-45.082947 75.15621z" p-id="883"></path></svg>