<?xml version="1.0" encoding="UTF-8"?>
<svg width="22px" height="17px" viewBox="0 0 22 17" version="1.1" xmlns="http://www.w3.org/2000/svg" xmlns:xlink="http://www.w3.org/1999/xlink">
    <title>yljg</title>
    <g id="页面-5" stroke="none" stroke-width="1" fill="none" fill-rule="evenodd">
        <g id="防汛防台管理" transform="translate(-507.000000, -50.000000)" fill="#FFFFFF">
            <g id="编组" transform="translate(507.000000, 33.000000)">
                <g id="编组-14" transform="translate(0.000000, 14.381731)">
                    <g id="yljg" transform="translate(0.000000, 2.618269)">
                        <path d="M17.7292713,12.0972455 C17.6376018,11.9798951 17.5844522,11.8363637 17.5796259,11.6879254 C17.5651169,11.522791 17.5965783,11.3551733 17.6712954,11.2067349 C17.746103,11.0584162 19.1529986,10.4001529 19.1264842,7.83888023 C19.0829872,6.82401772 18.4603949,5 16.5420023,5 L16.4333805,5 C14.420845,5 13.8850657,6.81677683 13.8440724,7.83654639 C13.8175579,10.2421397 15.2992611,11.204401 15.2992611,11.204401 C15.4222714,11.3695653 15.4850735,11.5706049 15.4777738,11.7765216 C15.4777738,11.8602108 15.3354282,12.032616 15.2341061,12.1068202 C14.4087189,12.7699008 11.4333975,13.4400727 11.2402552,14.8714962 C11.09064,15.4771583 10.207488,16.4394196 13.1442895,16.8271067 C14.2711996,16.9563956 15.4054396,17.013874 16.5395289,16.997178 C23.3518465,16.997178 21.9425981,15.6710468 21.7519594,14.8906457 C21.5589678,13.4617056 18.5593642,12.7674473 17.7316241,12.1043667 L17.7292713,12.0972455 Z" id="Fill-1"></path>
                        <path d="M14.7679179,3.36280045 L8.69302166,0.0588704215 C8.53238501,-0.0283267062 8.32842524,-0.0186448599 8.1804763,0.0878251929 L0.187918249,5.77354991 C-0.171736981,6.03014909 0.0195350786,6.57227197 0.468323088,6.57227197 C0.725966553,6.57227197 0.935058793,6.77081033 0.935058793,7.01521643 L0.935058793,15.5570555 C0.935058793,15.8015827 1.14427855,16 1.4017945,16 L9.07556578,16 C9.34854289,16 9.56783631,15.7773478 9.54230149,15.5207486 C9.51428013,15.2230621 9.5729369,14.9301862 9.62649307,14.6276286 C9.93766084,12.8970288 13.1510633,12.5799181 14.1430321,11.7714234 C14.2501445,11.689158 14.3343042,11.5850176 14.3878603,11.4664755 C14.4184957,11.403483 14.4286969,11.3357706 14.4262104,11.2655772 C14.4133952,11.0598077 14.3445372,10.8588791 14.2221231,10.6870566 C14.214536,10.6773445 14.2094035,10.6701436 14.2016889,10.6604618 C13.092279,9.31713589 12.7812388,7.53074449 13.3728433,5.92116781 C13.6355873,5.19987026 14.1736675,4.59475487 14.8239606,4.09129887 C15.0816041,3.89521123 15.0509687,3.51774025 14.7679179,3.36280045 Z M8.52218384,11.418036 C8.52218384,11.6455291 8.32842524,11.8295447 8.08869759,11.8295447 L3.53380851,11.8295447 C3.29408087,11.8295447 3.10032227,11.6455291 3.10032227,11.418036 C3.10032227,11.1905126 3.29408087,11.0066181 3.53380851,11.0066181 L8.08869759,11.0066181 C8.32842524,11.0066181 8.52218384,11.1905126 8.52218384,11.418036 Z M8.52218384,9.63660656 C8.52218384,9.86409969 8.32842524,10.0481153 8.08869759,10.0481153 L3.53380851,10.0481153 C3.29408087,10.0481153 3.10032227,9.86409969 3.10032227,9.63660656 C3.10032227,9.40908317 3.29408087,9.22506758 3.53380851,9.22506758 L8.08869759,9.22506758 C8.32842524,9.22506758 8.52218384,9.40908317 8.52218384,9.63660656 Z M8.08869759,8.26907603 L3.53380851,8.26907603 C3.29408087,8.26907603 3.10032227,8.08506044 3.10032227,7.85753706 C3.10032227,7.63004393 3.29408087,7.4461191 3.53380851,7.4461191 L8.08869759,7.4461191 C8.32842524,7.4461191 8.52218384,7.63004393 8.52218384,7.85753706 C8.52218384,8.08270049 8.32842524,8.26907603 8.08869759,8.26907603 Z" id="Fill-3"></path>
                    </g>
                </g>
            </g>
        </g>
    </g>
</svg>