<?xml version="1.0" standalone="no"?><!DOCTYPE svg PUBLIC "-//W3C//DTD SVG 1.1//EN" "http://www.w3.org/Graphics/SVG/1.1/DTD/svg11.dtd"><svg t="1720450807905" class="icon" viewBox="0 0 1109 1024" version="1.1" xmlns="http://www.w3.org/2000/svg" p-id="6054" xmlns:xlink="http://www.w3.org/1999/xlink" width="216.6015625" height="200"><path d="M554.666667 324.266667c-102.4 0-185.6 76.8-185.6 172.8v266.666666h371.2V497.066667c0-96-83.2-172.8-185.6-172.8z m-89.6 347.733333v-174.933333c0-44.8 40.533333-83.2 89.6-83.2 49.066667 0 89.6 36.266667 89.6 83.2v174.933333h-179.2z" fill="#F75F6B" p-id="6055"></path><path d="M554.666667 6.4L292.266667 149.333333V8.533333H196.266667v194.133334l-196.266667 106.666666L51.2 384 128 343.466667v672h853.333333V343.466667l76.8 40.533333 49.066667-76.8L554.666667 6.4zM224 925.866667V290.133333L554.666667 110.933333l330.666666 181.333334v635.733333h-661.333333z" fill="#F75F6B" p-id="6056"></path></svg>