<?xml version="1.0" encoding="utf-8"?>
<!-- Generator: Adobe Illustrator 25.3.1, SVG Export Plug-In . SVG Version: 6.00 Build 0)  -->
<svg version="1.1" id="图层_1" xmlns="http://www.w3.org/2000/svg" xmlns:xlink="http://www.w3.org/1999/xlink" x="0px" y="0px"
	 viewBox="0 0 38 38" style="enable-background:new 0 0 38 38;" xml:space="preserve">
<style type="text/css">
	.st0{clip-path:url(#SVGID_2_);}
	.st1{opacity:0.7;clip-path:url(#SVGID_4_);fill:#133661;}
	.st2{clip-path:url(#SVGID_6_);}
	.st3{clip-path:url(#SVGID_8_);}
	.st4{fill:#FFFFFF;}
</style>
<g>
	<defs>
		<path id="SVGID_1_" d="M3,0h32c1.7,0,3,1.3,3,3v32c0,1.7-1.3,3-3,3H3c-1.7,0-3-1.3-3-3V3C0,1.3,1.3,0,3,0z"/>
	</defs>
	<clipPath id="SVGID_2_">
		<use xlink:href="#SVGID_1_"  style="overflow:visible;"/>
	</clipPath>
	<g class="st0">
		<defs>
			<rect id="SVGID_3_" x="-1364" y="-575" width="1920" height="1080"/>
		</defs>
		<clipPath id="SVGID_4_">
			<use xlink:href="#SVGID_3_"  style="overflow:visible;"/>
		</clipPath>
		<rect x="-1" y="-1" class="st1" width="40" height="40"/>
	</g>
</g>
<g>
	<defs>
		<path id="SVGID_5_" d="M10.6,24.9c0.2,0,0.5-0.1,0.7-0.3l1.5-1.5l2.8,2.8c0.4,0.3,1,0.3,1.3-0.1c0.3-0.4,0.3-0.9,0-1.2l-2.8-2.8
			l1.2-1.2l2.1,2.1c0.4,0.4,0.9,0.4,1.3,0c0,0,0,0,0,0c0.4-0.4,0.4-0.9,0-1.3c0,0,0,0,0,0l-2.1-2.1l1.2-1.2l1.8,1.8
			c0.2,0.2,0.4,0.3,0.7,0.3c0.2,0,0.5-0.1,0.7-0.3c0.3-0.4,0.3-1,0-1.3l-1.8-1.8l1.2-1.2l2.3,2.3c0.4,0.4,0.9,0.4,1.3,0c0,0,0,0,0,0
			c0.4-0.4,0.4-0.9,0-1.3c0,0,0,0,0,0l-2.3-2.3l1.2-1.2l3.4,3.4c0.4,0.4,1,0.4,1.3,0s0.4-1,0-1.3l-3.4-3.4l1.5-1.4
			c0.4-0.4,0.4-1,0-1.3c-0.4-0.4-0.9-0.4-1.3,0c0,0,0,0,0,0L10,23.3c-0.4,0.4-0.4,1,0,1.3C10.2,24.8,10.4,24.9,10.6,24.9z
			 M29.1,27.5H8.9c-0.5,0.1-0.9,0.5-0.8,1c0,0.4,0.4,0.8,0.8,0.8h20.1c0.5-0.1,0.9-0.5,0.8-1C29.9,27.9,29.5,27.5,29.1,27.5z"/>
	</defs>
	<clipPath id="SVGID_6_">
		<use xlink:href="#SVGID_5_"  style="overflow:visible;"/>
	</clipPath>
	<g class="st2">
		<g>
			<defs>
				<rect id="SVGID_7_" x="8" y="8.8" width="22" height="20.5"/>
			</defs>
			<clipPath id="SVGID_8_">
				<use xlink:href="#SVGID_7_"  style="overflow:visible;"/>
			</clipPath>
			<g class="st3">
				<rect x="7" y="7.8" class="st4" width="24" height="22.5"/>
			</g>
		</g>
	</g>
</g>
</svg>
