<?xml version="1.0" encoding="UTF-8"?>
<svg width="15px" height="16px" viewBox="0 0 15 16" version="1.1" xmlns="http://www.w3.org/2000/svg" xmlns:xlink="http://www.w3.org/1999/xlink">
    <title>形状备份</title>
    <g id="页面-2" stroke="none" stroke-width="1" fill="none" fill-rule="evenodd">
        <g id="街道管理-共享单车" transform="translate(-1560.000000, -46.000000)" fill="#FFFFFF" fill-rule="nonzero">
            <g id="编组-2备份" transform="translate(1358.000000, 36.073529)">
                <path d="M207.623501,20.76 L208.723501,21.86 L212.653501,17.93 L208.723501,14 L207.623501,15.1 L209.663501,17.14 L202.033501,17.14 L202.033501,18.71 L209.663501,18.71 L207.623501,20.76 Z M214.613501,10.85 L203.613501,10.85 C202.753501,10.85 202.043501,11.56 202.043501,12.42 L202.043501,15.57 L203.613501,15.57 L203.613501,12.42 L214.613501,12.42 L214.613501,23.43 L203.613501,23.43 L203.613501,20.29 L202.043501,20.29 L202.043501,23.43 C202.043501,24.29 202.753501,25 203.613501,25 L214.613501,25 C215.473501,25 216.183605,24.29 216.183605,23.43 L216.183605,12.42 C216.193501,11.56 215.483501,10.85 214.613501,10.85" id="形状备份"></path>
            </g>
        </g>
    </g>
</svg>