<?xml version="1.0" encoding="UTF-8"?>
<svg width="38px" height="38px" viewBox="0 0 38 38" version="1.1" xmlns="http://www.w3.org/2000/svg" xmlns:xlink="http://www.w3.org/1999/xlink">
    <title>编组 31</title>
    <g id="页面-5" stroke="none" stroke-width="1">
        <g id="工具栏" transform="translate(-1364.000000, -900.000000)">
            <g id="编组-33" transform="translate(1364.000000, 575.000000)">
                <g id="编组-31" transform="translate(0.000000, 325.500000)">
                    <rect id="矩形备份-11" stroke="#4281CF" fill-opacity="0.377458479" fill="#1F436F" x="0.5" y="0.5" width="37" height="37" rx="3"></rect>
                    <g id="keshiyufenxi" transform="translate(10.000000, 9.205298)">
                        <path d="M19,4.58887424 L19,12.8276565 L18.8297206,12.883293 L18.8326638,12.8905189 L3.54706005,17.8038154 C3.28254362,18.5315897 2.57943185,19.0122552 1.79776251,18.9997621 C1.01606641,18.9871367 0.329062157,18.484026 0.08865348,17.7482054 C-0.15172844,17.0123583 0.107677472,16.2067141 0.734077865,15.7439412 L0.734077865,1.60456582 L0.732606248,0.745164401 C0.905052983,0.690269007 1.09507885,0.636802905 1.30399493,0.583972044 C7.58742419,-0.819566073 15.3205298,0.227681351 19,4.58887424 Z M13.4661588,9.78122681 L5.12300114,15.7772384 L16.8175387,12.018095 C15.8325722,11.0950107 14.7002032,10.3392329 13.4661588,9.78122681 Z M2.19533986,8.76860001 L2.19533986,15.4187773 C2.41378131,15.462106 2.61841632,15.5452167 2.80103059,15.6593748 L11.836089,9.16469912 C9.14006022,8.33208369 5.92674474,8.19974186 2.19533986,8.76860001 Z M17.5387112,6.85326954 L16.9673226,7.26310574 C17.164653,7.41416071 17.3545451,7.5717269 17.5394604,7.73726007 L17.5387112,6.85398418 L17.5387112,6.85326954 Z M13.1548985,2.47916008 L13.1548985,5.33038555 C14.0330791,5.6122472 14.8798742,5.96790265 15.6682595,6.41021554 L17.4962752,5.09693455 L17.3574883,4.95673161 C16.249896,3.87256082 14.7988818,3.05225317 13.1556477,2.47916008 L13.1548985,2.47916008 Z M8.04041461,1.49609845 L8.04041461,4.4341931 C9.24310015,4.50211093 10.4830042,4.65824783 11.6943589,4.93285714 L11.6943589,2.04542295 C10.4961685,1.75241812 9.27330843,1.56856884 8.04113704,1.49609845 L8.04041461,1.49609845 Z M2.19533986,1.87494019 L2.19533986,4.75729246 C3.39435974,4.54472501 4.92064045,4.39221427 6.57915261,4.39367003 L6.57915261,1.45276973 C5.09675285,1.45568125 3.61060715,1.59876925 2.19533986,1.87494019 Z" fill="#FFFFFF" id="dianxuan"></path>
                    </g>
                </g>
            </g>
        </g>
    </g>
</svg>
