<?xml version="1.0" encoding="UTF-8"?>
<svg width="38px" height="39px" viewBox="0 0 38 39" version="1.1" xmlns="http://www.w3.org/2000/svg" xmlns:xlink="http://www.w3.org/1999/xlink">
    <title>编组 29</title>
    <g id="页面-5" stroke="none" stroke-width="1" fill="none" fill-rule="evenodd">
        <g id="工具栏" transform="translate(-1364.000000, -807.000000)">
            <g id="编组-33" transform="translate(1364.000000, 575.000000)">
                <g id="编组-29" transform="translate(0.000000, 232.500000)">
                    <rect id="矩形备份-9" stroke="#4281CF" fill-opacity="0.377458479" fill="#1F436F" x="0.5" y="0.5" width="37" height="37" rx="3"></rect>
                    <path d="M27.7322023,22.104558 L17.0381917,15.613348 C16.6474584,15.3760051 16.3971346,15.5565656 16.4802041,16.0134589 L18.7524345,28.5695511 C18.836594,29.0265438 19.1169313,29.0897375 19.3793213,28.7099042 C19.3793213,28.7099042 20.8312755,26.5836829 22.0231717,25.2867083 L24.308457,28.7619403 C24.5270942,29.0935396 24.9658644,29.180316 25.2877744,28.9542301 L26.0549947,28.4131696 C26.3769048,28.1747581 26.4572112,27.7332718 26.2391824,27.4006288 L23.9549618,23.9287019 C25.4828622,23.2831717 27.6408943,22.7377376 27.6408943,22.7377376 C28.0819458,22.6268815 28.1218456,22.3418761 27.7322023,22.1056265 L27.7322023,22.104558 Z M12.2926215,27.586428 C11.2480056,27.586428 10.3992966,26.7120622 10.3992966,25.6389555 L10.3992966,12.1615253 C10.3992966,11.0873748 11.2490616,10.2129842 12.2915654,10.2129842 L24.7084346,10.2151215 C25.7514296,10.2151215 26.5986159,11.0884435 26.5986159,12.163091 L26.5986159,17.7500057 L28,18.8803961 L28,12.1636626 C28,10.267062 26.5223357,8.72303575 24.7084346,8.72303575 L12.2915654,8.72303575 C10.4766082,8.72243947 9,10.2659934 9,12.163091 L9,25.6405957 C9,27.5360531 10.4755522,29.0801786 12.2915654,29.0801786 L15.8344919,29.0801786 L15.8344919,27.586428 L12.2926215,27.586428 Z" id="dianxuan" fill="#FFFFFF"></path>
                </g>
            </g>
        </g>
    </g>
</svg>