<?xml version="1.0" encoding="UTF-8"?>
<svg width="38px" height="38px" viewBox="0 0 38 38" version="1.1" xmlns="http://www.w3.org/2000/svg" xmlns:xlink="http://www.w3.org/1999/xlink">
    <title>编组 26</title>
    <g id="页面-5" stroke="none" stroke-width="1" fill="none" fill-rule="evenodd">
        <g id="工具栏" transform="translate(-1364.000000, -668.000000)">
            <g id="编组-33" transform="translate(1364.000000, 575.000000)">
                <g id="编组-26" transform="translate(0.000000, 93.000000)">
                    <rect id="矩形备份-6" stroke="#4281CF" fill-opacity="0.377458479" fill="#1F436F" x="0.5" y="0.5" width="37" height="37" rx="3"></rect>
                    <path d="M28.1333115,14.3422483 C28.6153813,14.3422483 29,13.9555579 29,13.4741915 L29,9.72412819 C29,9.24261708 28.6176408,8.85607138 28.1333115,8.85607138 L24.3789264,8.85607138 C23.8968566,8.85607138 23.5076029,9.24261708 23.5076029,9.72412819 L23.5076029,10.6615717 L14.5156011,10.6615717 L14.5156011,9.72412819 C14.5156011,9.24261708 14.1263474,8.85607138 13.6442776,8.85607138 L9.8898925,8.85607138 C9.40782273,8.85607138 9,9.24261708 9,9.72412819 L9,13.4741915 C9,13.9555579 9.40556317,14.3422483 9.8898925,14.3422483 L10.7845359,14.3422483 L10.7845359,23.3700391 L9.8898925,23.3700391 C9.40782273,23.3700391 9,23.7565848 9,24.238096 L9,27.9880146 C9,28.4695257 9.40556317,28.8560714 9.8898925,28.8560714 L13.6442776,28.8560714 C14.1263474,28.8560714 14.5156011,28.4695257 14.5156011,27.9880146 L14.5156011,27.0967806 L23.5076029,27.0967806 L23.5076029,27.9880146 C23.5076029,28.4695257 23.8968566,28.8560714 24.3789264,28.8560714 L28.1333115,28.8560714 C28.6153813,28.8560714 29,28.4695257 29,27.9880146 L29,24.238096 C29,23.7565848 28.6176408,23.3700391 28.1333115,23.3700391 L27.238813,23.3700391 L27.238813,14.3422483 L28.1333115,14.3422483 Z M25,12.8560714 L27,12.8560714 L27,10.8560714 L25,10.8560714 L25,12.8560714 Z M20,12.3560714 L12.5,19.8560714 L12.5,18.3352281 C12.5678354,18.2967551 12.6378444,18.2537841 12.6943033,18.1949996 L18.5298668,12.3560714 L20,12.3560714 Z M10.5,12.8560714 L12.5,12.8560714 L12.5,10.8560714 L10.5,10.8560714 L10.5,12.8560714 Z M13.5349649,14.1763291 C13.98913,14.1763291 14.3558518,13.8099913 14.3558518,13.3539606 L14.3558518,12.3560714 L16,12.3560714 L12.5,15.8560714 L12.5,14.1763291 L13.5349649,14.1763291 Z M12.5,22.5443918 L22.7046575,12.3560714 L23.5,12.3560714 L23.5,13.0701064 L13.214035,23.3560714 L12.5,23.3560714 L12.5,22.5443918 Z M10.5,26.8560714 L12.5,26.8560714 L12.5,24.8560714 L10.5,24.8560714 L10.5,26.8560714 Z M19.5054262,25.3560714 L18,25.3560714 L25.5,17.8560714 L25.5,19.3633065 C25.4771961,19.3838239 25.4543922,19.4042561 25.4315884,19.429235 L19.5373403,25.3173099 C19.5260095,25.3287622 19.5168994,25.333309 19.5054262,25.3560714 Z M25,26.8560714 L27,26.8560714 L27,24.8560714 L25,24.8560714 L25,26.8560714 Z M24.4405656,23.4636078 C23.9756627,23.4636078 23.6002706,23.8353934 23.6002706,24.2985182 L23.6002706,25.3560714 L22,25.3560714 L25.5,21.8560714 L25.5,23.4636078 L24.4405656,23.4636078 Z M25.5,15.2452766 L15.3605164,25.3560714 L14.5,25.3560714 L14.5,24.5964056 L24.7790464,14.3560714 L25.5,14.3560714 L25.5,15.2452766 Z" id="mianjiliangsuan" fill="#FFFFFF"></path>
                </g>
            </g>
        </g>
    </g>
</svg>
