<?xml version="1.0" encoding="UTF-8"?>
<svg width="38px" height="38px" viewBox="0 0 38 38" version="1.1" xmlns="http://www.w3.org/2000/svg" xmlns:xlink="http://www.w3.org/1999/xlink">
    <title>编组 32</title>
    <defs>
        <polygon id="path-1" points="0 0 23 0 23 23 0 23"></polygon>
    </defs>
    <g id="页面-5" stroke="none" stroke-width="1" fill="none" fill-rule="evenodd">
        <g id="工具栏" transform="translate(-1364.000000, -947.000000)">
            <g id="编组-33" transform="translate(1364.000000, 575.000000)">
                <g id="编组-32" transform="translate(0.000000, 372.000000)">
                    <rect id="矩形备份-12" stroke="#4281CF" fill-opacity="0.377458479" fill="#1F436F" x="0.5" y="0.5" width="37" height="37" rx="3"></rect>
                    <g id="rizhaofenxi" transform="translate(8.000000, 8.000000)">
                        <g id="Clip-2"></g>
                        <path d="M11.5,19.7141175 C12.0173553,19.7141175 12.3624817,20.0431068 12.3624817,20.535604 L12.3624817,22.1785453 C12.3624817,22.6710107 12.0177055,23 11.5,23 C10.9826447,23 10.6376138,22.6710107 10.6376138,22.1785453 L10.6376138,20.5352221 C10.6376138,20.0427248 10.9822627,19.7137355 11.5,19.7137355 L11.5,19.7141175 Z M17.3083592,17.3080012 C17.6739201,16.9422171 18.1503428,16.9309176 18.4987476,17.2794184 L19.6605213,18.4408117 C20.0092762,18.7895671 19.9976903,19.2656404 19.6317793,19.6318065 C19.2656137,19.997718 18.7895411,20.0092721 18.4407862,19.6608986 L17.2796491,18.4995053 C16.9305122,18.1503679 16.9421936,17.6739127 17.3083592,17.3083832 L17.3083592,17.3080012 Z M4.50125242,17.2794184 C4.84937075,16.9305357 5.32582528,16.9424717 5.69160894,17.3083832 C6.05751991,17.6742947 6.06948777,18.1503679 5.72095566,18.4987414 L4.55918196,19.6605167 C4.21042704,20.0092721 3.73435446,19.997718 3.36818885,19.6318065 C3.00227788,19.2656404 2.9907238,18.7895671 3.33909676,18.4408117 L4.50125242,17.2790364 L4.50125242,17.2794184 Z M11.5,4.53022346 C15.3428928,4.53022346 18.469751,7.65648124 18.469751,11.499634 C18.469751,15.343296 15.3435294,18.4697765 11.5,18.4697765 C7.65672528,18.4697765 4.53021719,15.3435506 4.53021719,11.499634 C4.53021719,7.65648124 7.6570754,4.53022346 11.5,4.53022346 Z M11.5,6.39472959 C9.24208485,6.39472959 7.32162518,7.86808349 6.65037462,9.90319554 C7.53424568,8.98386523 8.75506295,8.46526783 10.0303722,8.46701845 C12.6234829,8.46701845 14.7258159,10.5693543 14.7258159,13.1624686 C14.7274392,14.2379543 14.3583134,15.2812285 13.6804423,16.1162744 C15.4076656,15.2971432 16.6052474,13.5354781 16.6052474,11.499634 C16.6052474,8.68435001 14.3152801,6.39472959 11.5,6.39472959 Z M22.1788965,10.6376285 C22.6710112,10.6376285 23,10.9822779 23,11.5000159 C23,12.017372 22.6710112,12.3624988 22.1785146,12.3624988 L20.5351936,12.3624988 C20.0426971,12.3624988 19.7137082,12.0177221 19.7137082,11.5000159 C19.7137082,10.9826599 20.0426971,10.6376285 20.5351936,10.6376285 L22.1788965,10.6376285 Z M2.4644244,10.6376285 C2.95688913,10.6376285 3.28552786,10.9822779 3.28552786,11.5000159 C3.28552786,12.017372 2.95688913,12.3624988 2.4644244,12.3624988 L0.82148541,12.3624988 C0.328606896,12.3624988 0,12.0177221 0,11.5000159 C0,10.9826599 0.328606896,10.6376285 0.82148541,10.6376285 L2.4644244,10.6376285 Z M18.4410408,3.33884675 C18.789191,2.99072794 19.2656137,3.00228203 19.6317793,3.36781156 C19.9976903,3.73397767 20.0092762,4.21005091 19.6608714,4.55893363 L18.4994797,5.72058162 C18.1503428,6.06946434 17.6745248,6.05778293 17.3083592,5.69161681 C16.9421936,5.32583265 16.9305122,4.84963209 17.2790125,4.50049474 L18.4410408,3.33884675 Z M3.36844349,3.36781156 C3.73435446,3.00228203 4.21042704,2.99034599 4.55892732,3.33910139 L5.72060553,4.50087669 C6.06948777,4.84963209 6.05777454,5.32583265 5.69160894,5.69199877 C5.32582528,6.05717817 4.84962538,6.06873226 4.50125242,5.72058162 L3.33947872,4.55893363 C2.9907238,4.21005091 3.00227788,3.73397767 3.36844349,3.36781156 Z M11.5,0 C12.0173553,0 12.3624817,0.32860735 12.3624817,0.821454717 L12.3624817,2.46477793 C12.3624817,2.95765713 12.0177055,3.28588253 11.5,3.28588253 C10.9826447,3.28588253 10.6376138,2.95765713 10.6376138,2.46477793 L10.6376138,0.821454717 C10.6376138,0.32860735 10.9822627,0 11.5,0 Z" id="Fill-1" fill="#FFFFFF"></path>
                    </g>
                </g>
            </g>
        </g>
    </g>
</svg>
