<?xml version="1.0" encoding="utf-8"?>
<!-- Generator: Adobe Illustrator 25.3.1, SVG Export Plug-In . SVG Version: 6.00 Build 0)  -->
<svg version="1.1" id="图层_1" xmlns="http://www.w3.org/2000/svg" xmlns:xlink="http://www.w3.org/1999/xlink" x="0px" y="0px"
	 viewBox="0 0 38 38" style="enable-background:new 0 0 38 38;" xml:space="preserve">
<style type="text/css">
	.st0{clip-path:url(#SVGID_2_);}
	.st1{opacity:0.7;clip-path:url(#SVGID_4_);fill:#133661;}
	.st2{clip-path:url(#SVGID_6_);}
	.st3{clip-path:url(#SVGID_8_);}
	.st4{fill:#FFFFFF;}
</style>
<g>
	<defs>
		<path id="SVGID_1_" d="M3,0h32c1.7,0,3,1.3,3,3v32c0,1.7-1.3,3-3,3H3c-1.7,0-3-1.3-3-3V3C0,1.3,1.3,0,3,0z"/>
	</defs>
	<clipPath id="SVGID_2_">
		<use xlink:href="#SVGID_1_"  style="overflow:visible;"/>
	</clipPath>
	<g class="st0">
		<defs>
			<rect id="SVGID_3_" x="-1364" y="-575" width="1920" height="1080"/>
		</defs>
		<clipPath id="SVGID_4_">
			<use xlink:href="#SVGID_3_"  style="overflow:visible;"/>
		</clipPath>
		<rect x="-1" y="-1" class="st1" width="40" height="40"/>
	</g>
</g>
<g>
	<defs>
		<path id="SVGID_5_" d="M25.5,28.4h2.9v-2.9c0-0.4,0.4-0.8,0.8-0.8c0.4,0,0.8,0.4,0.8,0.8l0,0V30h-4.5c-0.4,0-0.8-0.4-0.8-0.8
			C24.6,28.8,25,28.4,25.5,28.4L25.5,28.4z M9.6,25.4v2.9h3c0.4,0,0.8,0.4,0.8,0.8c0,0.4-0.4,0.8-0.8,0.8H8v-4.5
			c0-0.4,0.4-0.8,0.8-0.8S9.6,25,9.6,25.4L9.6,25.4z M19.1,17.7c0-0.3,0.1-0.6,0.3-0.8h-0.3c-0.4,0-0.8,0.1-1.2,0.3
			c-0.5,0.3-0.9,0.9-1,1.5c-0.1,0.6,0.1,1.2,0.6,1.7c0.8,0.9,2.1,0.9,2.9,0.1c0.4-0.4,0.7-1,0.7-1.6v-0.3c-0.3,0.2-0.6,0.3-1,0.3
			c-0.3-0.1-0.7-0.3-0.8-0.6C19.1,18.2,19.1,18,19.1,17.7L19.1,17.7z M17.9,22c0.9,0.4,1.9,0.4,2.8,0c0.9-0.4,1.6-1.1,1.9-1.9
			c0.2-0.4,0.3-0.9,0.2-1.4c0-0.5-0.1-0.9-0.2-1.3c-0.2-0.4-0.4-0.8-0.8-1.1c-0.3-0.3-0.7-0.6-1.2-0.8c-0.9-0.4-1.9-0.4-2.8,0
			c-0.4,0.2-0.8,0.4-1.2,0.8c-0.7,0.7-1,1.6-1,2.5c0,0.5,0.1,0.9,0.2,1.3c0.2,0.4,0.4,0.8,0.8,1.1C17.1,21.5,17.5,21.8,17.9,22
			L17.9,22z M10.4,19c3.1-3.1,5.6-5,8.9-5l0,0c3.9,0,6.9,2.8,8.9,5.1c-2,2-4.9,5-8.9,5S13.1,21.7,10.4,19z M28.4,12.5v-3h-2.9
			c-0.4,0-0.8-0.4-0.8-0.8c0-0.4,0.4-0.8,0.8-0.8H30v4.6c0,0.4-0.4,0.8-0.8,0.8C28.8,13.3,28.4,12.9,28.4,12.5L28.4,12.5z M8,12.5V8
			h4.6c0.4,0,0.8,0.4,0.8,0.8S13,9.6,12.6,9.6h-3v3c0,0.4-0.4,0.8-0.8,0.8C8.3,13.4,8,13,8,12.5L8,12.5z"/>
	</defs>
	<clipPath id="SVGID_6_">
		<use xlink:href="#SVGID_5_"  style="overflow:visible;"/>
	</clipPath>
	<g class="st2">
		<g>
			<defs>
				<rect id="SVGID_7_" x="-1364" y="-575" width="1920" height="1080"/>
			</defs>
			<clipPath id="SVGID_8_">
				<use xlink:href="#SVGID_7_"  style="overflow:visible;"/>
			</clipPath>
			<g class="st3">
				<rect x="7" y="7" class="st4" width="24" height="24"/>
			</g>
		</g>
	</g>
</g>
</svg>
