<?xml version="1.0" encoding="UTF-8"?>
<svg width="26px" height="23px" viewBox="0 0 26 23" version="1.1" xmlns="http://www.w3.org/2000/svg" xmlns:xlink="http://www.w3.org/1999/xlink">
    <title>wuyeguanli</title>
    <defs>
        <polygon id="path-1" points="0 0 25 0 25 23 0 23"></polygon>
    </defs>
    <g id="页面-3" stroke="none" stroke-width="1" fill="none" fill-rule="evenodd">
        <g id="街道管理-小蓝单车" transform="translate(-665.000000, -45.000000)">
            <g id="编组" transform="translate(497.547366, 33.337005)">
                <g id="编组-9备份" transform="translate(168.092634, 11.044725)">
                    <g id="wuyeguanli" transform="translate(0.000000, 0.618269)">
                        <mask id="mask-2" fill="white">
                            <use xlink:href="#path-1"></use>
                        </mask>
                        <g id="Clip-2"></g>
                        <path d="M10.6769551,23 L12.0722829,20.6079031 L14.8691184,20.6202118 C15.432404,20.6229969 15.9536664,20.328039 16.2333179,19.848272 L18.4583533,16.0332257 C18.7348004,15.5590739 18.7331982,14.9765253 18.4544164,14.5037661 L16.3325623,10.9035368 L14.0653664,14.7875384 C13.9108691,15.0521291 13.6549758,15.2453386 13.3547247,15.3241318 C13.0545193,15.4031047 12.7346299,15.3611475 12.4660106,15.2076041 C11.9047392,14.8866813 11.7121555,14.1815855 12.0347,13.6283261 L14.2254027,9.87540686 L10.3442023,9.85770759 C9.78128289,9.85523688 9.26056986,10.1497006 8.98091835,10.6290634 L6.75496742,14.4448285 C6.47852031,14.9188005 6.48016828,15.5015288 6.75890424,15.974288 L8.06840024,18.1959957 L5.26597993,23 L3.8846141,23 C3.02167244,23 2.32215457,22.3135468 2.32215457,21.4666771 L2.32215457,10.4235901 L1.93392009,10.7455911 C1.69592563,10.9430233 1.38761774,11.0391564 1.07720411,11.0125176 C0.766790476,10.9858339 0.480135092,10.8387593 0.280776389,10.6038172 L0.271300557,10.5922273 C-0.140509062,10.106845 -0.0763297507,9.38634098 0.415040241,8.97835931 L5.21429774,4.99629296 C5.2547188,4.96260145 5.29729138,4.93169511 5.3417866,4.90361886 L10.3254337,0.732924999 C11.4936162,-0.244308333 13.2120379,-0.244308333 14.380083,0.732924999 L22.0848963,7.18062553 L24.5849598,9.25507887 C25.0763298,9.66306054 25.1405091,10.3836095 24.7286994,10.8689469 L24.7194067,10.8805368 C24.520048,11.1155238 24.2332095,11.2627332 23.9227959,11.2892372 C23.6125196,11.3158759 23.3040744,11.2197428 23.066263,11.0223106 L22.6442451,10.671919 L22.6442451,21.4666771 C22.6442451,22.3135468 21.9447273,23 21.0817398,23 L10.6762684,23 L10.6769551,23 Z M13.5879126,18.1700308 L13.5832891,18.1777124 C13.4799247,18.354795 13.3087646,18.4843051 13.1078037,18.5372682 C12.9069801,18.5900965 12.6927439,18.5623796 12.5128862,18.4597328 L9.80201985,16.9111365 C9.43131795,16.6993292 9.3040122,16.2339821 9.51682933,15.8684518 L9.52218524,15.8591529 C9.62568697,15.682295 9.79684706,15.5529645 9.99780795,15.5001362 C10.1986315,15.447308 10.4126846,15.4752045 10.5925881,15.5778513 L13.3035918,17.1257289 C13.6742937,17.3378955 13.8012332,17.8037817 13.5879126,18.1691323 L13.5879126,18.1700308 Z" id="Fill-1" fill="#FFFFFF" mask="url(#mask-2)"></path>
                    </g>
                </g>
            </g>
        </g>
    </g>
</svg>