<?xml version="1.0" encoding="UTF-8"?>
<svg width="52px" height="52px" viewBox="0 0 52 52" version="1.1" xmlns="http://www.w3.org/2000/svg" xmlns:xlink="http://www.w3.org/1999/xlink">
    <title>shuiwei</title>
    <defs>
        <polygon id="path-1" points="0 0 52 0 52 52 0 52"></polygon>
    </defs>
    <g id="页面-5" stroke="none" stroke-width="1" fill="none" fill-rule="evenodd">
        <g id="防汛防台管理" transform="translate(-1475.000000, -283.000000)">
            <g id="设施分布列表备份" transform="translate(1416.000000, 151.940846)">
                <g id="shuiwei" transform="translate(59.000000, 131.059154)">
                    <g id="编组">
                        <mask id="mask-2" fill="white">
                            <use xlink:href="#path-1"></use>
                        </mask>
                        <g id="Clip-2"></g>
                        <path d="M45.3057076,43.2084854 C44.2793421,42.8045835 43.1870195,42.5938411 42.0840321,42.5871125 C39.6600626,42.5871125 38.3381282,43.4068499 36.5753163,45.3503141 L36.3989653,45.5529316 L36.3989653,36.4750103 L44.1994826,36.4750103 L44.1994826,31.2882706 L36.3989653,31.2882706 L36.3989653,25.1848647 L44.1994826,25.1848647 L44.1994826,19.9802881 L36.3989653,19.9802881 L36.3989653,13.8902123 L44.1994826,13.8902123 L44.1994826,8.69007897 L36.3989653,8.69007897 L36.3989653,0 L31.1985145,0 L31.1985145,45.0550208 C29.5853915,43.3186173 28.2677104,42.5871125 25.9585785,42.5871125 C23.3451807,42.5871125 21.9919501,43.5258686 20.0661817,45.7864621 C18.9776045,47.059994 18.6425503,47.293588 17.8934711,47.293588 C17.1443284,47.293588 16.8093376,47.059994 15.720697,45.7864621 C13.7860412,43.5258686 12.4462051,42.5871125 9.83280737,42.5871125 C7.64568651,42.5890803 5.51360392,43.2732315 3.73339812,44.5437165 C2.96368748,45.0624476 2.26958306,45.6853439 1.67101798,46.3947588 C1.10089252,46.9382458 0.542701544,47.4844623 -0.00380887737,48.0339795 L3.55711058,51.2243789 C3.89210134,50.8675767 4.46940019,50.2901297 5.14807865,49.6556173 L5.40378129,49.3692107 C6.5308281,48.0917433 8.13442896,47.334467 9.83725106,47.2759415 C10.5819501,47.2759415 10.921448,47.5095355 12.0100252,48.7830674 C13.9491881,51.0439148 15.284517,51.982417 17.8979148,51.982417 C20.5113125,51.982417 21.8642257,51.039408 23.7902481,48.7830674 C24.8786348,47.5095355 25.2136255,47.2759415 25.9627682,47.2759415 C26.7121648,47.2759415 27.0469017,47.5095355 28.1310351,48.7830674 C29.2154225,50.0567896 31.2867535,52 34.3715633,52 C37.0159399,52 38.6597879,50.2373172 39.9070683,48.8006504 C40.995455,47.5271186 41.3348894,47.293588 42.0840321,47.293588 C43.1771165,47.293588 44.6180783,47.9635205 46.1166176,49.1269203 C46.8964852,49.7386447 47.6220129,50.417083 48.2848845,51.1539833 L52,48.1398586 C49.2207257,45.5926045 46.9892314,43.9488769 45.3057076,43.2084854 Z" id="Fill-1" fill="#FFFFFF" mask="url(#mask-2)"></path>
                    </g>
                    <path d="M10.3094663,22.4905388 C9.42372303,24.3929298 8.99180342,25.9577441 8.99180342,27.135805 C8.99180342,32.4702476 13.216663,36.7911276 18.4957773,37 C23.7748915,36.7911276 28,32.4612191 28,27.135805 C28,25.9577441 27.5680804,24.3929298 26.70393,22.4905388 C25.850545,20.6825951 24.8745722,18.9387473 23.7836656,17.271674 C22.6604008,15.5244966 21.537136,13.950974 20.7899107,12.9419576 C19.9258226,11.7816335 19.3426907,11.0437927 19.2649065,10.9460158 C19.0968929,10.6908483 18.8168701,10.5380039 18.5174324,10.5380039 C18.2179324,10.5380039 17.9381585,10.6908483 17.7702071,10.9460158 C17.692423,11.0437927 17.100517,11.7816335 16.2451407,12.9419576 C15.4976665,13.950974 14.3744639,15.5244966 13.251448,17.271674 C12.1529497,18.9379789 11.1700074,20.6820828 10.3094663,22.4905388 Z M19.0833273,31.0833143 C20.8947015,30.3269042 22.0872252,28.5247873 22.1073869,26.5135419 C22.1095648,26.2058681 22.2315925,25.9117051 22.4457789,25.6971338 C22.6601519,25.4824985 22.9489487,25.3651919 23.2478886,25.3709547 C23.544215,25.3709547 23.8283448,25.4924875 24.0376774,25.7085955 C24.2466988,25.9244474 24.3636239,26.2173939 24.3623892,26.5222503 C24.3271587,29.4602309 22.5813721,32.0888089 19.9345344,33.1903516 C19.7974477,33.2486207 19.6506535,33.2786517 19.5023659,33.2794201 C18.9605529,33.2906257 18.4887456,32.9007348 18.3825236,32.3539655 C18.2763016,31.8071962 18.5660319,31.2606189 19.070384,31.0565489 L19.0833273,31.0833143 Z M8.15801998,14.3554642 C10.9869348,14.2846448 13.2594753,11.932493 13.3117463,9.02102154 C13.2465943,8.13910867 13.0037212,7.28088766 12.5989949,6.50052956 C12.1335348,5.52224853 11.6038561,4.5775843 11.0134436,3.67332427 C10.4978905,2.87093916 9.9563264,2.08654705 9.38918689,1.3216847 C8.92690036,0.677074464 8.60288287,0.272648295 8.55982158,0.223599776 C8.47015206,0.0840740279 8.31844193,0 8.15584202,0 C7.99324212,0 7.84153199,0.0840740279 7.75186246,0.223599776 C7.70880118,0.272648295 7.38478369,0.668366111 6.92249716,1.30394783 C6.51627741,1.85071716 5.90713448,2.7043919 5.29799155,3.6555874 C4.70782794,4.5597834 4.17814926,5.50451166 3.71268914,6.48272866 C3.30553599,7.26840141 3.06291179,8.13308967 3,9.02102154 C3.0522087,11.9342218 5.32717615,14.2868859 8.15801998,14.3554642 Z M8.47332565,11.1458597 C9.46161945,10.7396407 10.1148193,9.76065527 10.127887,8.66532373 C10.1301272,8.32870745 10.3926019,8.05477852 10.719793,8.0475429 C10.880215,8.0475429 11.034103,8.11304765 11.1473567,8.22990606 C11.2608593,8.34644432 11.32458,8.50479548 11.32458,8.66987 C11.3090232,10.2671485 10.3614883,11.6978797 8.92273113,12.2974114 C8.84861843,12.3284029 8.76934086,12.3449231 8.6893788,12.3462038 C8.39771949,12.350686 8.1443922,12.1403409 8.08726755,11.8459217 C8.03020513,11.5515665 8.18527553,11.2571474 8.45602646,11.1458597 L8.47332565,11.1458597 Z" id="Fill-3" fill="#FFFFFF"></path>
                </g>
            </g>
        </g>
    </g>
</svg>