<?xml version="1.0" encoding="UTF-8"?>
<svg width="23px" height="23px" viewBox="0 0 23 23" version="1.1" xmlns="http://www.w3.org/2000/svg" xmlns:xlink="http://www.w3.org/1999/xlink">
    <title>街道</title>
    <g id="页面-2" stroke="none" stroke-width="1" fill="none" fill-rule="evenodd">
        <g id="街道管理-垃圾分类" transform="translate(-586.000000, -45.000000)" fill-rule="nonzero">
            <g id="编组" transform="translate(572.547366, 33.337005)">
                <g id="编组-14" transform="translate(13.452634, 11.044725)">
                    <g id="街道" transform="translate(0.000000, 0.618269)">
                        <rect id="矩形" fill="#000000" opacity="0" x="0" y="0" width="23" height="23"></rect>
                        <path d="M8.36364453,14.6363555 L8.36364453,10.4545557 L9.84191113,10.4545557 L12.4555557,7.84088867 L15.1590889,7.84088867 L15.1590889,12.7236719 C14.2659453,13.0405205 13.5632763,13.7431894 13.2464277,14.6363555 L8.36364453,14.6363555 L8.36364453,14.6363555 Z M6.2727334,14.6363555 L2.09088867,14.6363555 L2.09088867,16.7272666 L6.27271094,16.7272666 L6.27271094,20.9091113 L8.36359961,20.9091113 L8.36359961,16.7272666 L13.2464053,16.7272666 C13.7339868,18.1037364 15.1070192,18.9615825 16.557903,18.7962311 C18.0087867,18.6308797 19.1535864,17.4860865 19.3189459,16.0352036 C19.4843055,14.5843208 18.6264671,13.2112835 17.25,12.7236943 L17.25,7.84091113 L20.9091113,7.84091113 L20.9091113,5.75 L17.25,5.75 L17.25,2.09088867 L15.1591113,2.09088867 L15.1591113,5.75 L11.5898887,5.75 L8.9762666,8.36364453 L4.18182227,8.36364453 L4.18182227,10.4545332 L6.27271094,10.4545332 L6.27271094,14.6363555 L6.2727334,14.6363555 Z M0,0 L23,0 L23,23 L0,23 L0,0 Z M16.2045557,16.7272666 C15.6271727,16.7272666 15.1591113,16.2592052 15.1591113,15.6818223 C15.1591113,15.1044393 15.6271727,14.6363779 16.2045557,14.6363779 C16.7819386,14.6363779 17.25,15.1044393 17.25,15.6818223 C17.25,16.2592052 16.7819386,16.7272666 16.2045557,16.7272666 Z" id="形状" fill="#FFFFFF"></path>
                    </g>
                </g>
            </g>
        </g>
    </g>
</svg>