<?xml version="1.0" encoding="UTF-8"?>
<svg width="66px" height="65px" viewBox="0 0 66 65" version="1.1" xmlns="http://www.w3.org/2000/svg" xmlns:xlink="http://www.w3.org/1999/xlink">
    <title>编组</title>
    <defs>
        <filter x="-103.8%" y="-108.8%" width="307.7%" height="317.6%" filterUnits="objectBoundingBox" id="filter-1">
            <feOffset dx="0" dy="2" in="SourceAlpha" result="shadowOffsetOuter1"></feOffset>
            <feGaussianBlur stdDeviation="6" in="shadowOffsetOuter1" result="shadowBlurOuter1"></feGaussianBlur>
            <feColorMatrix values="0 0 0 0 1   0 0 0 0 0.882352941   0 0 0 0 0  0 0 0 0.65272618 0" type="matrix" in="shadowBlurOuter1" result="shadowMatrixOuter1"></feColorMatrix>
            <feMerge>
                <feMergeNode in="shadowMatrixOuter1"></feMergeNode>
                <feMergeNode in="SourceGraphic"></feMergeNode>
            </feMerge>
        </filter>
        <path d="M16.4851007,0.107248209 L13.0000354,2.50207682 L9.5148569,0.107248209 C9.18526579,-0.11932561 8.73062809,0.0285138067 8.59692443,0.405815857 L8.59692443,0.405815857 L7.1839546,4.39249547 L2.95885116,4.50759497 C2.55943766,4.51847052 2.27867696,4.90506209 2.39155838,5.28876485 L2.39155838,5.28876485 L3.58527232,9.34630543 L0.237362183,11.9263581 C0.0801769281,12.0474618 0.00107506114,12.2262286 0,12.4053918 L0,12.4053918 L0,12.4128121 C0.00107506114,12.5919754 0.0801769281,12.7707421 0.237362183,12.8919025 L0.237362183,12.8919025 L3.58527232,15.4719552 L2.39150179,19.5293258 C2.27862037,19.9129719 2.5593245,20.2996202 2.958738,20.3104957 L2.958738,20.3104957 L7.18389802,20.4255952 L8.59692443,24.4123881 C8.68700324,24.6666606 8.9228377,24.8167091 9.16800823,24.8181818 L9.16800823,24.8181818 L9.17542049,24.8181818 C9.29158367,24.8174455 9.40967065,24.7832895 9.5148569,24.7109558 L9.5148569,24.7109558 L13.0000354,22.3161271 L16.4851007,24.7109558 C16.8148049,24.9374729 17.2693861,24.7896335 17.4030897,24.4123881 L17.4030897,24.4123881 L18.8160595,20.4256519 L23.0412196,20.310609 C23.4405765,20.2996768 23.7213372,19.9130852 23.6084558,19.5294391 L23.6084558,19.5294391 L22.4147984,15.4719552 L25.762652,12.8919025 C26.079116,12.6479958 26.079116,12.1702082 25.762652,11.9263581 L25.762652,11.9263581 L22.4147984,9.34630543 L23.6085689,5.28887814 C23.7213938,4.90517538 23.4406331,4.5185838 23.0413327,4.50770826 L23.0413327,4.50770826 L18.8161727,4.39260876 L17.4030897,0.405759214 C17.3125582,0.150240591 17.0748,0 16.8283281,0 L16.8283281,0 C16.7109201,0 16.5914751,0.0341215087 16.4851007,0.107248209" id="path-2"></path>
        <radialGradient cx="50.0000574%" cy="49.5308864%" fx="50.0000574%" fy="49.5308864%" r="76.4172778%" gradientTransform="translate(0.500001,0.495309),scale(0.954545,1.000000),scale(1.000000,1.001400),translate(-0.500001,-0.495309)" id="radialGradient-4">
            <stop stop-color="#FFAA00" offset="0%"></stop>
            <stop stop-color="#FFFF00" offset="100%"></stop>
        </radialGradient>
        <path d="M0,10.0454255 C0,15.5934204 4.49754667,20.0909091 10.0454835,20.0909091 L10.0454835,20.0909091 C15.5934204,20.0909091 20.0909091,15.5934204 20.0909091,10.0454255 L20.0909091,10.0454255 C20.0909091,4.49748868 15.5934204,0 10.0454835,0 L10.0454835,0 C4.49754667,0 0,4.49748868 0,10.0454255" id="path-5"></path>
        <radialGradient cx="50.00004%" cy="49.5308185%" fx="50.00004%" fy="49.5308185%" r="63.3550715%" gradientTransform="translate(0.500000,0.495308),scale(1.000000,1.001400),translate(-0.500000,-0.495308)" id="radialGradient-7">
            <stop stop-color="#FFAA00" offset="0%"></stop>
            <stop stop-color="#FFFF00" offset="100%"></stop>
        </radialGradient>
    </defs>
    <g id="页面-5" stroke="none" stroke-width="1" fill="none" fill-rule="evenodd">
        <g id="防汛防台管理" transform="translate(-40.000000, -386.000000)">
            <g id="设施分布列表" transform="translate(29.000000, 151.940846)">
                <g id="编组-5" transform="translate(28.000000, 123.000000)">
                    <g id="编组-6" transform="translate(0.000000, 104.059154)">
                        <g id="编组" filter="url(#filter-1)" transform="translate(3.000000, 27.000000)">
                            <g>
                                <mask id="mask-3" fill="white">
                                    <use xlink:href="#path-2"></use>
                                </mask>
                                <g id="Clip-2"></g>
                                <path d="M16.4851007,0.107248209 L13.0000354,2.50207682 L9.5148569,0.107248209 C9.18526579,-0.11932561 8.73062809,0.0285138067 8.59692443,0.405815857 L8.59692443,0.405815857 L7.1839546,4.39249547 L2.95885116,4.50759497 C2.55943766,4.51847052 2.27867696,4.90506209 2.39155838,5.28876485 L2.39155838,5.28876485 L3.58527232,9.34630543 L0.237362183,11.9263581 C0.0801769281,12.0474618 0.00107506114,12.2262286 0,12.4053918 L0,12.4053918 L0,12.4128121 C0.00107506114,12.5919754 0.0801769281,12.7707421 0.237362183,12.8919025 L0.237362183,12.8919025 L3.58527232,15.4719552 L2.39150179,19.5293258 C2.27862037,19.9129719 2.5593245,20.2996202 2.958738,20.3104957 L2.958738,20.3104957 L7.18389802,20.4255952 L8.59692443,24.4123881 C8.68700324,24.6666606 8.9228377,24.8167091 9.16800823,24.8181818 L9.16800823,24.8181818 L9.17542049,24.8181818 C9.29158367,24.8174455 9.40967065,24.7832895 9.5148569,24.7109558 L9.5148569,24.7109558 L13.0000354,22.3161271 L16.4851007,24.7109558 C16.8148049,24.9374729 17.2693861,24.7896335 17.4030897,24.4123881 L17.4030897,24.4123881 L18.8160595,20.4256519 L23.0412196,20.310609 C23.4405765,20.2996768 23.7213372,19.9130852 23.6084558,19.5294391 L23.6084558,19.5294391 L22.4147984,15.4719552 L25.762652,12.8919025 C26.079116,12.6479958 26.079116,12.1702082 25.762652,11.9263581 L25.762652,11.9263581 L22.4147984,9.34630543 L23.6085689,5.28887814 C23.7213938,4.90517538 23.4406331,4.5185838 23.0413327,4.50770826 L23.0413327,4.50770826 L18.8161727,4.39260876 L17.4030897,0.405759214 C17.3125582,0.150240591 17.0748,0 16.8283281,0 L16.8283281,0 C16.7109201,0 16.5914751,0.0341215087 16.4851007,0.107248209" id="Fill-1" fill="url(#radialGradient-4)" mask="url(#mask-3)"></path>
                            </g>
                            <g transform="translate(3.545455, 2.363636)">
                                <mask id="mask-6" fill="white">
                                    <use xlink:href="#path-5"></use>
                                </mask>
                                <g id="Clip-4"></g>
                                <path d="M0,10.0454255 C0,15.5934204 4.49754667,20.0909091 10.0454835,20.0909091 L10.0454835,20.0909091 C15.5934204,20.0909091 20.0909091,15.5934204 20.0909091,10.0454255 L20.0909091,10.0454255 C20.0909091,4.49748868 15.5934204,0 10.0454835,0 L10.0454835,0 C4.49754667,0 0,4.49748868 0,10.0454255" id="Fill-3" fill="url(#radialGradient-7)" mask="url(#mask-6)"></path>
                            </g>
                        </g>
                    </g>
                </g>
            </g>
        </g>
    </g>
</svg>