<?xml version="1.0" encoding="UTF-8"?>
<svg width="38px" height="38px" viewBox="0 0 38 38" version="1.1" xmlns="http://www.w3.org/2000/svg" xmlns:xlink="http://www.w3.org/1999/xlink">
    <title>编组 30</title>
    <g id="页面-5" stroke="none" stroke-width="1" fill="none" fill-rule="evenodd">
        <g id="工具栏" transform="translate(-1364.000000, -854.000000)">
            <g id="编组-33" transform="translate(1364.000000, 575.000000)">
                <g id="编组-30" transform="translate(0.000000, 279.000000)">
                    <rect id="矩形备份-10" stroke="#4281CF" fill-opacity="0.377458479" fill="#1F436F" x="0.5" y="0.5" width="37" height="37" rx="3"></rect>
                    <g id="iconfonttubiao_tongshifenxi" transform="translate(4.000000, 10.160595)">
                        <path d="M28.076361,7.7031958 C27.6146858,7.4313208 27.0604374,7.4313208 26.5987622,7.7031958 C26.4140127,7.79375 26.2292633,7.9750354 26.1369427,8.1561792 L22.9968514,8.1561792 L22.9968514,0 L9.51273885,0 L4.80258385,4.6218396 L4.80258385,8.1561792 L2.6782718,8.1561792 C2.40123781,7.7031958 1.9395626,7.4313208 1.47774308,7.4313208 C0.646568969,7.4313208 0,8.065625 0,8.8812146 C0,9.4249292 0.277070064,9.8780896 0.738853503,10.1499646 C1.20067302,10.4218042 1.75481315,10.4218042 2.21659659,10.1499646 C2.40123781,10.059375 2.58598726,9.8780896 2.6782718,9.6969458 L4.80258385,9.6969458 L4.80258385,18.125 L18.4713376,18.125 L23.1814926,13.5031604 L23.1814926,9.7875 L26.3217282,9.7875 C26.4140127,9.9688208 26.5987622,10.1499646 26.7833673,10.2406604 C27.2451869,10.5125354 27.799327,10.5125354 28.2611104,10.2406604 C28.7229299,9.9688208 29,9.5156604 29,8.9719104 C28.8152505,8.4280542 28.5381805,7.9750354 28.076361,7.7031958 Z M16.8089894,16.584375 L6.28018262,16.584375 L6.28018262,9.6969458 L7.20382166,9.6969458 L7.20382166,8.1561792 L6.28018262,8.1561792 L6.28018262,6.1624292 L16.8089894,6.1624292 L16.8089894,16.584375 Z" id="Fill-1" fill="#FFFFFF"></path>
                        <path d="M11.6234508,10.15 L13.1669193,10.15 L13.1669193,7.975 L11.6234508,7.975 L11.6234508,10.15 Z M13.6813976,10.15 L15.225,10.15 L15.225,7.975 L13.6813976,7.975 L13.6813976,10.15 Z M7.25,10.15 L8.79360241,10.15 L8.79360241,7.975 L7.25,7.975 L7.25,10.15 Z M9.3937992,10.15 L10.9374016,10.15 L10.9374016,7.975 L9.3937992,7.975 L9.3937992,10.15 Z" id="Fill-2" fill="#838383"></path>
                    </g>
                </g>
            </g>
        </g>
    </g>
</svg>