<?xml version="1.0" encoding="UTF-8"?>
<svg width="17px" height="17px" viewBox="0 0 17 17" version="1.1" xmlns="http://www.w3.org/2000/svg" xmlns:xlink="http://www.w3.org/1999/xlink">
    <!-- Generator: Sketch 64 (93537) - https://sketch.com -->
    <title>切片</title>
    <desc>Created with Sketch.</desc>
    <g id="飞控" stroke="none" stroke-width="1" fill="none" fill-rule="evenodd">
        <g id="飞行权限" transform="translate(-557.000000, -498.000000)" fill="#4E5969" fill-rule="nonzero">
            <g id="16px/线性/通用/icon-up" transform="translate(565.090909, 506.976224) rotate(0.000010) translate(-565.090909, -506.976224) translate(557.090909, 498.976224)">
                <path d="M10.7649484,8.07934061 C10.7410083,8.00974059 10.7012583,7.94436057 10.6457083,7.88881055 L7.11017658,4.35327642 C6.91490648,4.15801386 6.59832833,4.15801376 6.40306595,4.35327642 L6.04951306,4.70682946 C5.85425047,4.9020916 5.85425037,5.2186697 6.04951206,5.41393976 L8.96838748,8.33281069 L6.11017209,11.1910216 C5.9149094,11.3862817 5.9149093,11.7028718 6.11017209,11.8981318 L6.46372526,12.2516819 C6.65898736,12.446942 6.97556651,12.446942 7.17083661,12.2516819 L10.7063683,8.71615082 C10.8796184,8.54290076 10.8991484,8.27413067 10.7649484,8.07934061 Z" id="形状结合" transform="translate(8.377939, 8.302478) scale(1, -1) rotate(90.000009) translate(-8.377939, -8.302478) "></path>
            </g>
        </g>
    </g>
</svg>