<?xml version="1.0" encoding="UTF-8"?>
<svg width="23px" height="23px" viewBox="0 0 23 23" version="1.1" xmlns="http://www.w3.org/2000/svg" xmlns:xlink="http://www.w3.org/1999/xlink">
    <title>无人机</title>
    <g id="页面-2" stroke="none" stroke-width="1" fill="none" fill-rule="evenodd">
        <g id="街道管理-垃圾分类" transform="translate(-1101.000000, -45.000000)" fill-rule="nonzero">
            <g id="编组" transform="translate(572.547366, 33.337005)">
                <g id="编组-11" transform="translate(528.452634, 11.044725)">
                    <g id="无人机" transform="translate(0.000000, 0.618269)">
                        <rect id="矩形" fill="#000000" opacity="0" x="0" y="0" width="23" height="23"></rect>
                        <path d="M8.01383789,16.2409424 L4.99086523,19.2638926 C4.64437343,19.6107441 4.0823076,19.6110357 3.73545605,19.2645439 C3.38860451,18.9180521 3.38831289,18.3559863 3.73480469,18.0091348 L6.75905762,14.9861621 C6.0529458,14.5188927 5.22442053,14.2708712 4.3777041,14.2732793 C1.96789158,14.2732793 0.0143525391,16.2268359 0.0143525391,18.6366484 C0.0143525391,21.046461 1.96789158,23 4.3777041,23 C6.78751663,23 8.74105566,21.046461 8.74105566,18.6366484 C8.72910547,17.7855291 8.47702484,16.9550886 8.01383789,16.2409424 L8.01383789,16.2409424 Z M3.73610742,4.96216016 C3.38925588,4.61532102 3.38924582,4.05297361 3.73608496,3.70612207 C4.0829241,3.35927053 4.6452715,3.35926047 4.99212305,3.70609961 L7.98513281,6.70166992 C9.19126331,4.84562912 8.80100898,2.37843842 7.08092465,0.985259271 C5.36084032,-0.407919872 2.86639925,-0.277182898 1.30137568,1.28817312 C-0.263647893,2.85352914 -0.393855043,5.34799792 0.999689416,7.0677863 C2.39323388,8.78757468 4.86050741,9.17730497 6.71629199,7.97078027 L3.73610742,4.96216016 Z M18.651001,14.3017339 C17.81526,14.2991341 16.9971662,14.542116 16.2983525,15.0005146 L19.2926201,17.9947822 C19.5169897,18.2189271 19.6047359,18.5457453 19.5228055,18.8521276 C19.4408751,19.1585098 19.2017154,19.3979093 18.8954154,19.4801466 C18.5891154,19.5623839 18.2622094,19.4749652 18.0378398,19.2508203 L15.0435723,16.2542617 C14.5870796,16.9539588 14.3442709,17.7714694 14.3448116,18.6069102 C14.3448116,20.9882861 16.284,22.9274512 18.6653535,22.9274512 C21.046707,22.9274512 22.9856475,20.9882861 22.9856475,18.6069102 C22.9856475,16.2255342 21.0323545,14.3017339 18.651001,14.3017339 L18.651001,14.3017339 Z M18.651001,0 C17.0612462,0.00205695987 15.5998241,0.873090032 14.8416782,2.27042298 C14.0835323,3.66775592 14.1499923,5.3677665 15.0149121,6.70164746 L18.0094043,3.70737988 C18.3562558,3.36088188 18.9183267,3.36116848 19.2648247,3.70802002 C19.6113227,4.05487156 19.6110361,4.61694242 19.2641846,4.96344043 L16.2696475,7.95640527 C17.6035043,8.82143802 19.3035608,8.88799285 20.7009614,8.12988502 C22.0983619,7.37177718 22.9694614,5.91033707 22.9716185,4.32054102 C22.9856475,1.9391875 21.04646,0 18.651001,0 Z" id="形状" fill="#FFFFFF"></path>
                        <path d="M6.73035254,14.9577266 C8.42729883,12.9472705 8.41294629,9.96713086 6.71626953,7.95642773 C7.24378711,7.47167578 7.48526465,7.2291875 7.99946289,6.67318945 C10.0099189,8.38475781 13.0051973,8.38475781 15.0148896,6.67318945 C15.4427031,7.12946094 15.813376,7.51448633 16.2983525,7.95640527 C14.583875,9.98793721 14.5896226,12.9612737 16.3119414,14.9861621 C15.9702432,15.3427295 15.5139717,15.7415908 15.0302529,16.2696475 C13.0198193,14.5583486 10.0396572,14.5442432 8.0289541,16.2409424 C7.47295605,15.6849443 7.13177441,15.2999189 6.73138574,14.9577266 L6.73035254,14.9577266 Z" id="路径" fill="#FFFFFF"></path>
                    </g>
                </g>
            </g>
        </g>
    </g>
</svg>