<?xml version="1.0" encoding="UTF-8"?>
<svg width="23px" height="22px" viewBox="0 0 23 22" version="1.1" xmlns="http://www.w3.org/2000/svg" xmlns:xlink="http://www.w3.org/1999/xlink">
    <title>yujing</title>
    <defs>
        <polygon id="path-1" points="0 0 23 0 23 21.2307692 0 21.2307692"></polygon>
    </defs>
    <g id="页面-3" stroke="none" stroke-width="1" fill="none" fill-rule="evenodd">
        <g id="街道管理-小蓝单车" transform="translate(-980.000000, -45.000000)">
            <g id="编组" transform="translate(497.547366, 33.337005)">
                <g id="编组-10" transform="translate(482.452634, 11.044725)">
                    <g id="yujing" transform="translate(0.000000, 0.618269)">
                        <mask id="mask-2" fill="white">
                            <use xlink:href="#path-1"></use>
                        </mask>
                        <g id="Clip-2"></g>
                        <path d="M22.0268553,19.3942025 L20.2042475,19.3942025 L20.2042475,8.68015258 C20.2053749,7.52130606 19.9675728,6.37430327 19.5054711,5.30922186 C18.6005383,3.22487901 16.9140309,1.5681548 14.799873,0.686612493 C13.7248081,0.232144583 12.5673908,-0.00138702904 11.3980179,6.19728168e-06 C7.85531677,0.0031483202 4.65471513,2.09083437 3.25847318,5.30922186 C2.79637147,6.37614333 2.55867421,7.52496025 2.55969674,8.68562091 L2.57844299,19.3954205 L0.883047537,19.3954205 C0.381827772,19.4200151 -0.00901195393,19.8335612 0.000158103723,20.3295211 C0.00962942562,20.8254809 0.41572834,21.2244362 0.917551131,21.2307009 L22.0596285,21.2307009 C22.3983195,21.2347768 22.7124438,21.0562913 22.8793773,20.7649405 C23.0463107,20.4736933 23.0395463,20.1156081 22.8617584,19.8306327 C22.6839705,19.5456572 22.3633965,19.3788082 22.0251249,19.3954205 L22.0268553,19.3942025 Z M10.900259,18.4999871 L10.900259,12.0285102 L7.61106488,12.0285102 L12.1289382,3.70321582 L12.1289382,10.484781 L15.3054975,10.484781 L10.900259,18.4999871 Z" id="Fill-1" fill="#FFFFFF" mask="url(#mask-2)"></path>
                    </g>
                </g>
            </g>
        </g>
    </g>
</svg>